<svg xmlns="http://www.w3.org/2000/svg" viewBox="0 0 2290 1210" width="2290" height="1210"><defs><style type="text/css">@import url('https://fonts.googleapis.com/css?family=Roboto+Mono:400|Roboto:400,&amp;subset=cyrillic,cyrillic-ext,greek,greek-ext,latin-ext')</style></defs><rect x="0" y="0" width="2290" height="1210" fill="#ffffff"/><g transform="translate(45,45)"><g><g><g transform="translate(10, 866)"><rect x="0" y="0" rx="2" ry="2" width="180" height="228" fill="#ffffff"/><g><g><g transform="translate( 0, 0 )"><svg xmlns="http://www.w3.org/2000/svg" xmlns:xlink="http://www.w3.org/1999/xlink" width="180" height="185" viewBox="0 0 180 185">
  <defs>
    <rect id="2772h5vt4s8-project-a" width="160" height="82" rx="2"/>
  </defs>
  <g fill="none" fill-rule="evenodd">
    <path fill="#58A8F7" d="M0,2.99971296 C0,1.34301724 1.34537458,0 2.99263929,0 L177.007361,0 C178.66015,0 180,1.34382565 180,2.99971296 L180,185 L0,185 L0,2.99971296 Z" opacity=".097"/>
    <path fill="#58A8F7" d="M0,3.00947762 C0,1.34738902 1.34537458,0 2.99263929,0 L177.007361,0 C178.66015,0 180,1.33663106 180,3.00947762 L180,16 L0,16 L0,3.00947762 Z" opacity=".197"/>
    <path fill="#0D87FF" d="M2.5,5 C1.11928813,5 0,3.88071187 0,2.5 C0,1.11928813 1.11928813,0 2.5,0 C3.88071187,0 5,1.11928813 5,2.5 C5,3.88071187 3.88071187,5 2.5,5 Z M10.5,5 C9.11928813,5 8,3.88071187 8,2.5 C8,1.11928813 9.11928813,0 10.5,0 C11.8807119,0 13,1.11928813 13,2.5 C13,3.88071187 11.8807119,5 10.5,5 Z M18.5,5 C17.1192881,5 16,3.88071187 16,2.5 C16,1.11928813 17.1192881,0 18.5,0 C19.8807119,0 21,1.11928813 21,2.5 C21,3.88071187 19.8807119,5 18.5,5 Z" opacity=".499" transform="translate(5 6)"/>
    <g transform="translate(10 57)">
      <rect width="160" height="82" fill="#58A8F7" opacity=".197" rx="2"/>
      <mask id="2772h5vt4s8-project-b" fill="#fff">
        <use xlink:href="#2772h5vt4s8-project-a"/>
      </mask>
      <use fill="#58A8F7" opacity="0" xlink:href="#2772h5vt4s8-project-a"/>
      <path fill="#58A8F7" d="M123.544554,38 C147.292079,38 158.861386,56.7865169 182,82 C163.123762,82 82.3134379,82 59,82 C79.0940594,61.2359551 99.7970297,38 123.544554,38 Z" mask="url(#2772h5vt4s8-project-b)" opacity=".197"/>
      <path fill="#0D87FF" d="M44.5,31 C69.8826643,31 86.3055556,55.3181901 109,82 C79.2231422,82 7.11330049,82 -20,82 C1.92139189,55.3181901 19.1173357,31 44.5,31 Z" mask="url(#2772h5vt4s8-project-b)" opacity=".198"/>
      <circle cx="87" cy="22" r="9" fill="#58A8F7" mask="url(#2772h5vt4s8-project-b)" opacity=".499"/>
    </g>
    <polygon fill="#58A8F7" points="0 0 127 0 127 3 0 3" opacity=".197" transform="translate(27 151)"/>
    <polygon fill="#58A8F7" points="0 0 127 0 127 3 0 3" opacity=".197" transform="translate(27 158)"/>
    <polygon fill="#58A8F7" points="0 0 127 0 127 3 0 3" opacity=".197" transform="translate(27 165)"/>
    <polygon fill="#58A8F7" points="0 0 96 0 96 3 0 3" opacity=".197" transform="translate(42 172)"/>
    <polygon fill="#58A8F7" points="0 0 32 0 32 8 0 8" opacity=".499" transform="translate(74 26)"/>
    <polygon fill="#58A8F7" points="0 0 72 0 72 8 0 8" opacity=".499" transform="translate(54 39)"/>
  </g>
</svg></g></g></g><rect x="-1" y="-1" rx="3" ry="3" width="182" height="230" fill="none" stroke="#A2CEF9" stroke-width="2"/><g transform="translate(0,206)"><g><text x="90" y="2" text-anchor="middle" font-family="Roboto,sans-serif" font-size="14px" fill="#52565f">Flashcard</text></g></g></g><g transform="translate(210, 866)"><rect x="0" y="0" rx="2" ry="2" width="180" height="228" fill="#ffffff"/><g><g><g transform="translate( 0, 0 )"><svg xmlns="http://www.w3.org/2000/svg" width="180" height="185" viewBox="0 0 180 185">
  <g fill="none" fill-rule="evenodd">
    <path fill="#58A8F7" d="M0,2.99971296 C0,1.34301724 1.34537458,0 2.99263929,0 L177.007361,0 C178.66015,0 180,1.34382565 180,2.99971296 L180,185 L0,185 L0,2.99971296 Z" opacity=".097"/>
    <path fill="#58A8F7" d="M0,3.00947762 C0,1.34738902 1.34537458,0 2.99263929,0 L177.007361,0 C178.66015,0 180,1.33663106 180,3.00947762 L180,16 L0,16 L0,3.00947762 Z" opacity=".197"/>
    <path fill="#0D87FF" d="M2.5,5 C1.11928813,5 0,3.88071187 0,2.5 C0,1.11928813 1.11928813,0 2.5,0 C3.88071187,0 5,1.11928813 5,2.5 C5,3.88071187 3.88071187,5 2.5,5 Z M10.5,5 C9.11928813,5 8,3.88071187 8,2.5 C8,1.11928813 9.11928813,0 10.5,0 C11.8807119,0 13,1.11928813 13,2.5 C13,3.88071187 11.8807119,5 10.5,5 Z M18.5,5 C17.1192881,5 16,3.88071187 16,2.5 C16,1.11928813 17.1192881,0 18.5,0 C19.8807119,0 21,1.11928813 21,2.5 C21,3.88071187 19.8807119,5 18.5,5 Z" opacity=".499" transform="translate(5 6)"/>
    <path fill="#FFF" d="M3.8458278,-1.55376046e-16 L106.154172,1.55376046e-16 C107.49145,-9.02779573e-17 107.97638,0.139238417 108.465269,0.400699056 C108.954157,0.662159695 109.33784,1.04584256 109.599301,1.53473144 C109.860762,2.02362033 110,2.50854969 110,3.8458278 L110,105.154172 C110,106.49145 109.860762,106.97638 109.599301,107.465269 C109.33784,107.954157 108.954157,108.33784 108.465269,108.599301 C107.97638,108.860762 107.49145,109 106.154172,109 L3.8458278,109 C2.50854969,109 2.02362033,108.860762 1.53473144,108.599301 C1.04584256,108.33784 0.662159695,107.954157 0.400699056,107.465269 C0.139238417,106.97638 6.01853049e-17,106.49145 -1.03584031e-16,105.154172 L1.03584031e-16,3.8458278 C-6.01853049e-17,2.50854969 0.139238417,2.02362033 0.400699056,1.53473144 C0.662159695,1.04584256 1.04584256,0.662159695 1.53473144,0.400699056 C2.02362033,0.139238417 2.50854969,9.02779573e-17 3.8458278,-1.55376046e-16 Z" transform="translate(35 46)"/>
    <polygon fill="#0D87FF" points="2.749 6.529 0 9.558 15.08 24 34 2.798 31.028 0 14.856 18.123" transform="translate(73 60)"/>
    <polygon fill="#58A8F7" points="0 0 50 0 50 8 0 8" opacity=".499" transform="translate(65 97)"/>
    <g fill="#58A8F7" opacity=".197" transform="translate(55 110)">
      <polygon points="0 0 70 0 70 3 0 3"/>
      <polygon points="0 0 42 0 42 3 0 3" transform="translate(14 7)"/>
    </g>
    <path fill="#0D87FF" d="M0,1.99201702 C0,0.891856397 0.89599229,0 1.99926044,0 L49.0007396,0 C50.1049006,0 51,0.900176167 51,1.99201702 L51,9.00798298 C51,10.1081436 50.1040077,11 49.0007396,11 L1.99926044,11 C0.895099388,11 0,10.0998238 0,9.00798298 L0,1.99201702 Z" opacity=".499" transform="translate(65 130)"/>
  </g>
</svg></g></g></g><rect x="-1" y="-1" rx="3" ry="3" width="182" height="230" fill="none" stroke="#A2CEF9" stroke-width="2"/><g transform="translate(0,206)"><g><text x="90" y="2" text-anchor="middle" font-family="Roboto,sans-serif" font-size="14px" fill="#52565f">Spelling quiz</text></g></g></g><g transform="translate(410, 866)"><rect x="0" y="0" rx="2" ry="2" width="180" height="228" fill="#ffffff"/><g><g><g transform="translate( 0, 0 )"><svg xmlns="http://www.w3.org/2000/svg" width="180" height="185" viewBox="0 0 180 185">
  <g fill="none" fill-rule="evenodd">
    <path fill="#58A8F7" d="M0,2.99971296 C0,1.34301724 1.34537458,0 2.99263929,0 L177.007361,0 C178.66015,0 180,1.34382565 180,2.99971296 L180,185 L0,185 L0,2.99971296 Z" opacity=".097"/>
    <path fill="#58A8F7" d="M0,3.00947762 C0,1.34738902 1.34537458,0 2.99263929,0 L177.007361,0 C178.66015,0 180,1.33663106 180,3.00947762 L180,16 L0,16 L0,3.00947762 Z" opacity=".197"/>
    <path fill="#0D87FF" d="M2.5,5 C1.11928813,5 0,3.88071187 0,2.5 C0,1.11928813 1.11928813,0 2.5,0 C3.88071187,0 5,1.11928813 5,2.5 C5,3.88071187 3.88071187,5 2.5,5 Z M10.5,5 C9.11928813,5 8,3.88071187 8,2.5 C8,1.11928813 9.11928813,0 10.5,0 C11.8807119,0 13,1.11928813 13,2.5 C13,3.88071187 11.8807119,5 10.5,5 Z M18.5,5 C17.1192881,5 16,3.88071187 16,2.5 C16,1.11928813 17.1192881,0 18.5,0 C19.8807119,0 21,1.11928813 21,2.5 C21,3.88071187 19.8807119,5 18.5,5 Z" opacity=".499" transform="translate(5 6)"/>
    <path fill="#FFF" d="M3.8458278,-1.55376046e-16 L106.154172,1.55376046e-16 C107.49145,-9.02779573e-17 107.97638,0.139238417 108.465269,0.400699056 C108.954157,0.662159695 109.33784,1.04584256 109.599301,1.53473144 C109.860762,2.02362033 110,2.50854969 110,3.8458278 L110,105.154172 C110,106.49145 109.860762,106.97638 109.599301,107.465269 C109.33784,107.954157 108.954157,108.33784 108.465269,108.599301 C107.97638,108.860762 107.49145,109 106.154172,109 L3.8458278,109 C2.50854969,109 2.02362033,108.860762 1.53473144,108.599301 C1.04584256,108.33784 0.662159695,107.954157 0.400699056,107.465269 C0.139238417,106.97638 6.01853049e-17,106.49145 -1.03584031e-16,105.154172 L1.03584031e-16,3.8458278 C-6.01853049e-17,2.50854969 0.139238417,2.02362033 0.400699056,1.53473144 C0.662159695,1.04584256 1.04584256,0.662159695 1.53473144,0.400699056 C2.02362033,0.139238417 2.50854969,9.02779573e-17 3.8458278,-1.55376046e-16 Z" transform="translate(35 46)"/>
    <polygon fill="#58A8F7" points="0 0 50 0 50 8 0 8" opacity=".499" transform="translate(65 101)"/>
    <g fill="#58A8F7" opacity=".197" transform="translate(55 114)">
      <polygon points="0 0 70 0 70 3 0 3"/>
      <polygon points="0 0 42 0 42 3 0 3" transform="translate(14 7)"/>
    </g>
    <path fill="#0D87FF" d="M12.5,9.6106997 L22.1106997,0 L25,2.8893003 L15.3893003,12.5 L25,22.1106997 L22.1106997,25 L12.5,15.3893003 L2.8893003,25 L0,22.1106997 L9.6106997,12.5 L0,2.8893003 L2.8893003,0 L12.5,9.6106997 Z" transform="translate(78 63)"/>
    <path fill="#0D87FF" d="M0,1.99201702 C0,0.891856397 0.889064278,0 1.99091407,0 L48.0090859,0 C49.1086374,0 50,0.900176167 50,1.99201702 L50,9.00798298 C50,10.1081436 49.1109357,11 48.0090859,11 L1.99091407,11 C0.891362589,11 0,10.0998238 0,9.00798298 L0,1.99201702 Z" opacity=".499" transform="translate(65 130)"/>
  </g>
</svg></g></g></g><rect x="-1" y="-1" rx="3" ry="3" width="182" height="230" fill="none" stroke="#A2CEF9" stroke-width="2"/><g transform="translate(0,206)"><g><text x="90" y="2" text-anchor="middle" font-family="Roboto,sans-serif" font-size="14px" fill="#52565f">Multiple choice quiz</text></g></g></g><g transform="translate(610, 866)"><rect x="0" y="0" rx="2" ry="2" width="180" height="228" fill="#ffffff"/><g><g><g transform="translate( 0, 0 )"><svg xmlns="http://www.w3.org/2000/svg" width="180" height="185" viewBox="0 0 180 185">
  <g fill="none" fill-rule="evenodd">
    <path fill="#58A8F7" d="M0,2.99971296 C0,1.34301724 1.34537458,0 2.99263929,0 L177.007361,0 C178.66015,0 180,1.34382565 180,2.99971296 L180,185 L0,185 L0,2.99971296 Z" opacity=".097"/>
    <path fill="#58A8F7" d="M0,3.00947762 C0,1.34738902 1.34537458,0 2.99263929,0 L177.007361,0 C178.66015,0 180,1.33663106 180,3.00947762 L180,16 L0,16 L0,3.00947762 Z" opacity=".197"/>
    <path fill="#0D87FF" d="M2.5,5 C1.11928813,5 0,3.88071187 0,2.5 C0,1.11928813 1.11928813,0 2.5,0 C3.88071187,0 5,1.11928813 5,2.5 C5,3.88071187 3.88071187,5 2.5,5 Z M10.5,5 C9.11928813,5 8,3.88071187 8,2.5 C8,1.11928813 9.11928813,0 10.5,0 C11.8807119,0 13,1.11928813 13,2.5 C13,3.88071187 11.8807119,5 10.5,5 Z M18.5,5 C17.1192881,5 16,3.88071187 16,2.5 C16,1.11928813 17.1192881,0 18.5,0 C19.8807119,0 21,1.11928813 21,2.5 C21,3.88071187 19.8807119,5 18.5,5 Z" opacity=".499" transform="translate(5 6)"/>
    <polygon fill="#58A8F7" points="0 0 40 0 40 5 0 5" opacity=".499" transform="translate(40 57)"/>
    <polygon fill="#58A8F7" points="0 0 40 0 40 5 0 5" opacity=".499" transform="translate(40 101)"/>
    <polygon fill="#58A8F7" points="0 0 40 0 40 5 0 5" opacity=".499" transform="translate(40 145)"/>
    <g fill="#58A8F7" opacity=".197" transform="translate(50 155)">
      <polygon points="0 0 70 0 70 3 0 3"/>
      <polygon points="0 0 42 0 42 3 0 3" transform="translate(0 7)"/>
    </g>
    <polygon fill="#58A8F7" points="0 0 30 0 30 3 0 3" opacity=".197" transform="translate(40 42)"/>
    <g fill="#58A8F7" opacity=".197" transform="translate(50 67)">
      <polygon points="0 0 70 0 70 3 0 3" transform="translate(0 14)"/>
      <polygon points="0 0 70 0 70 3 0 3" transform="translate(0 7)"/>
      <polygon points="0 0 70 0 70 3 0 3"/>
      <polygon points="0 0 42 0 42 3 0 3" transform="translate(0 21)"/>
    </g>
    <g fill="#58A8F7" opacity=".197" transform="translate(50 111)">
      <polygon points="0 0 70 0 70 3 0 3" transform="translate(0 14)"/>
      <polygon points="0 0 70 0 70 3 0 3" transform="translate(0 7)"/>
      <polygon points="0 0 70 0 70 3 0 3"/>
      <polygon points="0 0 42 0 42 3 0 3" transform="translate(0 21)"/>
    </g>
    <g transform="translate(20 26)">
      <circle cx="7.5" cy="7.5" r="7.5" fill="#0D87FF" opacity=".499"/>
      <polygon fill="#FFF" points="7.5 9.75 4.855 11.141 5.36 8.195 3.22 6.109 6.177 5.68 7.5 3 8.823 5.68 11.78 6.109 9.64 8.195 10.145 11.141"/>
    </g>
    <polygon fill="#58A8F7" points="0 0 60 0 60 8 0 8" opacity=".499" transform="translate(40 29)"/>
  </g>
</svg></g></g></g><rect x="-1" y="-1" rx="3" ry="3" width="182" height="230" fill="none" stroke="#A2CEF9" stroke-width="2"/><g transform="translate(0,206)"><g><text x="90" y="2" text-anchor="middle" font-family="Roboto,sans-serif" font-size="14px" fill="#52565f">Test</text></g></g></g><g transform="translate(210, 586)"><rect x="0" y="0" rx="2" ry="2" width="180" height="228" fill="#ffffff"/><g><g><g transform="translate( 0, 0 )"><svg xmlns="http://www.w3.org/2000/svg" xmlns:xlink="http://www.w3.org/1999/xlink" width="180" height="185" viewBox="0 0 180 185">
  <defs>
    <rect id="6hslv1l8lvr-features-a" width="70" height="43" rx="2"/>
    <rect id="6hslv1l8lvr-features-c" width="70" height="41" rx="2"/>
  </defs>
  <g fill="none" fill-rule="evenodd">
    <path fill="#58A8F7" d="M0,2.99971296 C0,1.34301724 1.34537458,0 2.99263929,0 L177.007361,0 C178.66015,0 180,1.34382565 180,2.99971296 L180,185 L0,185 L0,2.99971296 Z" opacity=".097"/>
    <path fill="#58A8F7" d="M0,3.00947762 C0,1.34738902 1.34537458,0 2.99263929,0 L177.007361,0 C178.66015,0 180,1.33663106 180,3.00947762 L180,16 L0,16 L0,3.00947762 Z" opacity=".197"/>
    <path fill="#0D87FF" d="M2.5,5 C1.11928813,5 0,3.88071187 0,2.5 C0,1.11928813 1.11928813,0 2.5,0 C3.88071187,0 5,1.11928813 5,2.5 C5,3.88071187 3.88071187,5 2.5,5 Z M10.5,5 C9.11928813,5 8,3.88071187 8,2.5 C8,1.11928813 9.11928813,0 10.5,0 C11.8807119,0 13,1.11928813 13,2.5 C13,3.88071187 11.8807119,5 10.5,5 Z M18.5,5 C17.1192881,5 16,3.88071187 16,2.5 C16,1.11928813 17.1192881,0 18.5,0 C19.8807119,0 21,1.11928813 21,2.5 C21,3.88071187 19.8807119,5 18.5,5 Z" opacity=".499" transform="translate(5 6)"/>
    <polygon fill="#58A8F7" points="0 0 50 0 50 5 0 5" opacity=".499" transform="translate(100 83)"/>
    <polygon fill="#58A8F7" points="0 0 50 0 50 5 0 5" opacity=".499" transform="translate(10 134)"/>
    <g fill="#58A8F7" opacity=".197" transform="translate(100 93)">
      <polygon points="0 0 70 0 70 3 0 3" transform="translate(0 14)"/>
      <polygon points="0 0 70 0 70 3 0 3" transform="translate(0 7)"/>
      <polygon points="0 0 70 0 70 3 0 3"/>
      <polygon points="0 0 42 0 42 3 0 3" transform="translate(0 21)"/>
    </g>
    <g fill="#58A8F7" opacity=".197" transform="translate(10 144)">
      <polygon points="0 0 70 0 70 3 0 3" transform="translate(0 14)"/>
      <polygon points="0 0 70 0 70 3 0 3" transform="translate(0 7)"/>
      <polygon points="0 0 70 0 70 3 0 3"/>
      <polygon points="0 0 42 0 42 3 0 3" transform="translate(0 21)"/>
    </g>
    <g transform="translate(10 81)">
      <rect width="70" height="43" fill="#58A8F7" opacity=".197" rx="2"/>
      <mask id="6hslv1l8lvr-features-b" fill="#fff">
        <use xlink:href="#6hslv1l8lvr-features-a"/>
      </mask>
      <path fill="#58A8F7" d="M56,20.4761905 C67.970297,20.4761905 74.3366337,30.0930979 86,43 L24,43 C34.1287129,32.3707865 44.029703,20.4761905 56,20.4761905 Z" mask="url(#6hslv1l8lvr-features-b)" opacity=".197"/>
      <path fill="#0D87FF" d="M16,16.3809524 C28.7897146,16.3809524 37.5648148,29.0736399 49,43 L-16,43 C-4.95433742,29.0736399 3.21028543,16.3809524 16,16.3809524 Z" mask="url(#6hslv1l8lvr-features-b)" opacity=".198"/>
      <circle cx="38" cy="11.262" r="5" fill="#58A8F7" mask="url(#6hslv1l8lvr-features-b)" opacity=".499"/>
    </g>
    <g transform="translate(100 134)">
      <rect width="70" height="41" fill="#58A8F7" opacity=".197" rx="2"/>
      <mask id="6hslv1l8lvr-features-d" fill="#fff">
        <use xlink:href="#6hslv1l8lvr-features-c"/>
      </mask>
      <path fill="#58A8F7" d="M56,19.5238095 C67.970297,19.5238095 74.3366337,28.6934189 86,41 L24,41 C34.1287129,30.8651685 44.029703,19.5238095 56,19.5238095 Z" mask="url(#6hslv1l8lvr-features-d)" opacity=".197"/>
      <path fill="#0D87FF" d="M16,15.6190476 C28.7897146,15.6190476 37.5648148,27.7213775 49,41 L-16,41 C-4.95433742,27.7213775 3.21028543,15.6190476 16,15.6190476 Z" mask="url(#6hslv1l8lvr-features-d)" opacity=".198"/>
      <circle cx="38" cy="10.738" r="5" fill="#58A8F7" mask="url(#6hslv1l8lvr-features-d)" opacity=".499"/>
    </g>
    <g transform="translate(26 21)">
      <circle cx="7.5" cy="7.5" r="7.5" fill="#0D87FF" opacity=".499"/>
      <polygon fill="#FFF" points="7.5 9.75 4.855 11.141 5.36 8.195 3.22 6.109 6.177 5.68 7.5 3 8.823 5.68 11.78 6.109 9.64 8.195 10.145 11.141"/>
    </g>
    <g transform="translate(140 21)">
      <circle cx="7.5" cy="7.5" r="7.5" fill="#0D87FF" opacity=".499"/>
      <polygon fill="#FFF" points="7.5 9.75 4.855 11.141 5.36 8.195 3.22 6.109 6.177 5.68 7.5 3 8.823 5.68 11.78 6.109 9.64 8.195 10.145 11.141"/>
    </g>
    <g transform="translate(83 21)">
      <circle cx="7.5" cy="7.5" r="7.5" fill="#0D87FF" opacity=".499"/>
      <polygon fill="#FFF" points="7.5 9.75 4.855 11.141 5.36 8.195 3.22 6.109 6.177 5.68 7.5 3 8.823 5.68 11.78 6.109 9.64 8.195 10.145 11.141"/>
    </g>
    <g fill="#58A8F7" transform="translate(10 42)">
      <polygon points="0 0 26 0 26 5 0 5" opacity=".499" transform="translate(10)"/>
      <polygon points="0 0 46 0 46 3 0 3" opacity=".197" transform="translate(0 17)"/>
      <polygon points="0 0 46 0 46 3 0 3" opacity=".197" transform="translate(0 10)"/>
      <polygon points="0 0 26 0 26 3 0 3" opacity=".197" transform="translate(10 24)"/>
    </g>
    <g fill="#58A8F7" transform="translate(124 42)">
      <polygon points="0 0 26 0 26 5 0 5" opacity=".499" transform="translate(10)"/>
      <polygon points="0 0 46 0 46 3 0 3" opacity=".197" transform="translate(0 17)"/>
      <polygon points="0 0 46 0 46 3 0 3" opacity=".197" transform="translate(0 10)"/>
      <polygon points="0 0 26 0 26 3 0 3" opacity=".197" transform="translate(10 24)"/>
    </g>
    <g fill="#58A8F7" transform="translate(67 42)">
      <polygon points="0 0 26 0 26 5 0 5" opacity=".499" transform="translate(10)"/>
      <polygon points="0 0 46 0 46 3 0 3" opacity=".197" transform="translate(0 17)"/>
      <polygon points="0 0 46 0 46 3 0 3" opacity=".197" transform="translate(0 10)"/>
      <polygon points="0 0 26 0 26 3 0 3" opacity=".197" transform="translate(10 24)"/>
    </g>
  </g>
</svg></g></g></g><rect x="-1" y="-1" rx="3" ry="3" width="182" height="230" fill="none" stroke="#A2CEF9" stroke-width="2"/><g transform="translate(0,206)"><g><text x="90" y="2" text-anchor="middle" font-family="Roboto,sans-serif" font-size="14px" fill="#52565f">Vocabulary Set 1</text></g></g></g><g transform="translate(810, 586)"><rect x="0" y="0" rx="2" ry="2" width="180" height="228" fill="#ffffff"/><g><g><g transform="translate( 0, 0 )"><svg xmlns="http://www.w3.org/2000/svg" xmlns:xlink="http://www.w3.org/1999/xlink" width="180" height="185" viewBox="0 0 180 185">
  <defs>
    <rect id="xclzgbmrdf-features-a" width="70" height="43" rx="2"/>
    <rect id="xclzgbmrdf-features-c" width="70" height="41" rx="2"/>
  </defs>
  <g fill="none" fill-rule="evenodd">
    <path fill="#58A8F7" d="M0,2.99971296 C0,1.34301724 1.34537458,0 2.99263929,0 L177.007361,0 C178.66015,0 180,1.34382565 180,2.99971296 L180,185 L0,185 L0,2.99971296 Z" opacity=".097"/>
    <path fill="#58A8F7" d="M0,3.00947762 C0,1.34738902 1.34537458,0 2.99263929,0 L177.007361,0 C178.66015,0 180,1.33663106 180,3.00947762 L180,16 L0,16 L0,3.00947762 Z" opacity=".197"/>
    <path fill="#0D87FF" d="M2.5,5 C1.11928813,5 0,3.88071187 0,2.5 C0,1.11928813 1.11928813,0 2.5,0 C3.88071187,0 5,1.11928813 5,2.5 C5,3.88071187 3.88071187,5 2.5,5 Z M10.5,5 C9.11928813,5 8,3.88071187 8,2.5 C8,1.11928813 9.11928813,0 10.5,0 C11.8807119,0 13,1.11928813 13,2.5 C13,3.88071187 11.8807119,5 10.5,5 Z M18.5,5 C17.1192881,5 16,3.88071187 16,2.5 C16,1.11928813 17.1192881,0 18.5,0 C19.8807119,0 21,1.11928813 21,2.5 C21,3.88071187 19.8807119,5 18.5,5 Z" opacity=".499" transform="translate(5 6)"/>
    <polygon fill="#58A8F7" points="0 0 50 0 50 5 0 5" opacity=".499" transform="translate(100 83)"/>
    <polygon fill="#58A8F7" points="0 0 50 0 50 5 0 5" opacity=".499" transform="translate(10 134)"/>
    <g fill="#58A8F7" opacity=".197" transform="translate(100 93)">
      <polygon points="0 0 70 0 70 3 0 3" transform="translate(0 14)"/>
      <polygon points="0 0 70 0 70 3 0 3" transform="translate(0 7)"/>
      <polygon points="0 0 70 0 70 3 0 3"/>
      <polygon points="0 0 42 0 42 3 0 3" transform="translate(0 21)"/>
    </g>
    <g fill="#58A8F7" opacity=".197" transform="translate(10 144)">
      <polygon points="0 0 70 0 70 3 0 3" transform="translate(0 14)"/>
      <polygon points="0 0 70 0 70 3 0 3" transform="translate(0 7)"/>
      <polygon points="0 0 70 0 70 3 0 3"/>
      <polygon points="0 0 42 0 42 3 0 3" transform="translate(0 21)"/>
    </g>
    <g transform="translate(10 81)">
      <rect width="70" height="43" fill="#58A8F7" opacity=".197" rx="2"/>
      <mask id="xclzgbmrdf-features-b" fill="#fff">
        <use xlink:href="#xclzgbmrdf-features-a"/>
      </mask>
      <path fill="#58A8F7" d="M56,20.4761905 C67.970297,20.4761905 74.3366337,30.0930979 86,43 L24,43 C34.1287129,32.3707865 44.029703,20.4761905 56,20.4761905 Z" mask="url(#xclzgbmrdf-features-b)" opacity=".197"/>
      <path fill="#0D87FF" d="M16,16.3809524 C28.7897146,16.3809524 37.5648148,29.0736399 49,43 L-16,43 C-4.95433742,29.0736399 3.21028543,16.3809524 16,16.3809524 Z" mask="url(#xclzgbmrdf-features-b)" opacity=".198"/>
      <circle cx="38" cy="11.262" r="5" fill="#58A8F7" mask="url(#xclzgbmrdf-features-b)" opacity=".499"/>
    </g>
    <g transform="translate(100 134)">
      <rect width="70" height="41" fill="#58A8F7" opacity=".197" rx="2"/>
      <mask id="xclzgbmrdf-features-d" fill="#fff">
        <use xlink:href="#xclzgbmrdf-features-c"/>
      </mask>
      <path fill="#58A8F7" d="M56,19.5238095 C67.970297,19.5238095 74.3366337,28.6934189 86,41 L24,41 C34.1287129,30.8651685 44.029703,19.5238095 56,19.5238095 Z" mask="url(#xclzgbmrdf-features-d)" opacity=".197"/>
      <path fill="#0D87FF" d="M16,15.6190476 C28.7897146,15.6190476 37.5648148,27.7213775 49,41 L-16,41 C-4.95433742,27.7213775 3.21028543,15.6190476 16,15.6190476 Z" mask="url(#xclzgbmrdf-features-d)" opacity=".198"/>
      <circle cx="38" cy="10.738" r="5" fill="#58A8F7" mask="url(#xclzgbmrdf-features-d)" opacity=".499"/>
    </g>
    <g transform="translate(26 21)">
      <circle cx="7.5" cy="7.5" r="7.5" fill="#0D87FF" opacity=".499"/>
      <polygon fill="#FFF" points="7.5 9.75 4.855 11.141 5.36 8.195 3.22 6.109 6.177 5.68 7.5 3 8.823 5.68 11.78 6.109 9.64 8.195 10.145 11.141"/>
    </g>
    <g transform="translate(140 21)">
      <circle cx="7.5" cy="7.5" r="7.5" fill="#0D87FF" opacity=".499"/>
      <polygon fill="#FFF" points="7.5 9.75 4.855 11.141 5.36 8.195 3.22 6.109 6.177 5.68 7.5 3 8.823 5.68 11.78 6.109 9.64 8.195 10.145 11.141"/>
    </g>
    <g transform="translate(83 21)">
      <circle cx="7.5" cy="7.5" r="7.5" fill="#0D87FF" opacity=".499"/>
      <polygon fill="#FFF" points="7.5 9.75 4.855 11.141 5.36 8.195 3.22 6.109 6.177 5.68 7.5 3 8.823 5.68 11.78 6.109 9.64 8.195 10.145 11.141"/>
    </g>
    <g fill="#58A8F7" transform="translate(10 42)">
      <polygon points="0 0 26 0 26 5 0 5" opacity=".499" transform="translate(10)"/>
      <polygon points="0 0 46 0 46 3 0 3" opacity=".197" transform="translate(0 17)"/>
      <polygon points="0 0 46 0 46 3 0 3" opacity=".197" transform="translate(0 10)"/>
      <polygon points="0 0 26 0 26 3 0 3" opacity=".197" transform="translate(10 24)"/>
    </g>
    <g fill="#58A8F7" transform="translate(124 42)">
      <polygon points="0 0 26 0 26 5 0 5" opacity=".499" transform="translate(10)"/>
      <polygon points="0 0 46 0 46 3 0 3" opacity=".197" transform="translate(0 17)"/>
      <polygon points="0 0 46 0 46 3 0 3" opacity=".197" transform="translate(0 10)"/>
      <polygon points="0 0 26 0 26 3 0 3" opacity=".197" transform="translate(10 24)"/>
    </g>
    <g fill="#58A8F7" transform="translate(67 42)">
      <polygon points="0 0 26 0 26 5 0 5" opacity=".499" transform="translate(10)"/>
      <polygon points="0 0 46 0 46 3 0 3" opacity=".197" transform="translate(0 17)"/>
      <polygon points="0 0 46 0 46 3 0 3" opacity=".197" transform="translate(0 10)"/>
      <polygon points="0 0 26 0 26 3 0 3" opacity=".197" transform="translate(10 24)"/>
    </g>
  </g>
</svg></g></g></g><rect x="-1" y="-1" rx="3" ry="3" width="182" height="230" fill="none" stroke="#A2CEF9" stroke-width="2"/><g transform="translate(0,206)"><g><text x="90" y="2" text-anchor="middle" font-family="Roboto,sans-serif" font-size="14px" fill="#52565f">Vocabulary Set 2</text></g></g></g><g transform="translate(1010, 586)"><rect x="0" y="0" rx="2" ry="2" width="180" height="228" fill="#ffffff"/><g><g><g transform="translate( 0, 0 )"><svg xmlns="http://www.w3.org/2000/svg" xmlns:xlink="http://www.w3.org/1999/xlink" width="180" height="185" viewBox="0 0 180 185">
  <defs>
    <rect id="4blxkfp8ckl-features-a" width="70" height="43" rx="2"/>
    <rect id="4blxkfp8ckl-features-c" width="70" height="41" rx="2"/>
  </defs>
  <g fill="none" fill-rule="evenodd">
    <path fill="#58A8F7" d="M0,2.99971296 C0,1.34301724 1.34537458,0 2.99263929,0 L177.007361,0 C178.66015,0 180,1.34382565 180,2.99971296 L180,185 L0,185 L0,2.99971296 Z" opacity=".097"/>
    <path fill="#58A8F7" d="M0,3.00947762 C0,1.34738902 1.34537458,0 2.99263929,0 L177.007361,0 C178.66015,0 180,1.33663106 180,3.00947762 L180,16 L0,16 L0,3.00947762 Z" opacity=".197"/>
    <path fill="#0D87FF" d="M2.5,5 C1.11928813,5 0,3.88071187 0,2.5 C0,1.11928813 1.11928813,0 2.5,0 C3.88071187,0 5,1.11928813 5,2.5 C5,3.88071187 3.88071187,5 2.5,5 Z M10.5,5 C9.11928813,5 8,3.88071187 8,2.5 C8,1.11928813 9.11928813,0 10.5,0 C11.8807119,0 13,1.11928813 13,2.5 C13,3.88071187 11.8807119,5 10.5,5 Z M18.5,5 C17.1192881,5 16,3.88071187 16,2.5 C16,1.11928813 17.1192881,0 18.5,0 C19.8807119,0 21,1.11928813 21,2.5 C21,3.88071187 19.8807119,5 18.5,5 Z" opacity=".499" transform="translate(5 6)"/>
    <polygon fill="#58A8F7" points="0 0 50 0 50 5 0 5" opacity=".499" transform="translate(100 83)"/>
    <polygon fill="#58A8F7" points="0 0 50 0 50 5 0 5" opacity=".499" transform="translate(10 134)"/>
    <g fill="#58A8F7" opacity=".197" transform="translate(100 93)">
      <polygon points="0 0 70 0 70 3 0 3" transform="translate(0 14)"/>
      <polygon points="0 0 70 0 70 3 0 3" transform="translate(0 7)"/>
      <polygon points="0 0 70 0 70 3 0 3"/>
      <polygon points="0 0 42 0 42 3 0 3" transform="translate(0 21)"/>
    </g>
    <g fill="#58A8F7" opacity=".197" transform="translate(10 144)">
      <polygon points="0 0 70 0 70 3 0 3" transform="translate(0 14)"/>
      <polygon points="0 0 70 0 70 3 0 3" transform="translate(0 7)"/>
      <polygon points="0 0 70 0 70 3 0 3"/>
      <polygon points="0 0 42 0 42 3 0 3" transform="translate(0 21)"/>
    </g>
    <g transform="translate(10 81)">
      <rect width="70" height="43" fill="#58A8F7" opacity=".197" rx="2"/>
      <mask id="4blxkfp8ckl-features-b" fill="#fff">
        <use xlink:href="#4blxkfp8ckl-features-a"/>
      </mask>
      <path fill="#58A8F7" d="M56,20.4761905 C67.970297,20.4761905 74.3366337,30.0930979 86,43 L24,43 C34.1287129,32.3707865 44.029703,20.4761905 56,20.4761905 Z" mask="url(#4blxkfp8ckl-features-b)" opacity=".197"/>
      <path fill="#0D87FF" d="M16,16.3809524 C28.7897146,16.3809524 37.5648148,29.0736399 49,43 L-16,43 C-4.95433742,29.0736399 3.21028543,16.3809524 16,16.3809524 Z" mask="url(#4blxkfp8ckl-features-b)" opacity=".198"/>
      <circle cx="38" cy="11.262" r="5" fill="#58A8F7" mask="url(#4blxkfp8ckl-features-b)" opacity=".499"/>
    </g>
    <g transform="translate(100 134)">
      <rect width="70" height="41" fill="#58A8F7" opacity=".197" rx="2"/>
      <mask id="4blxkfp8ckl-features-d" fill="#fff">
        <use xlink:href="#4blxkfp8ckl-features-c"/>
      </mask>
      <path fill="#58A8F7" d="M56,19.5238095 C67.970297,19.5238095 74.3366337,28.6934189 86,41 L24,41 C34.1287129,30.8651685 44.029703,19.5238095 56,19.5238095 Z" mask="url(#4blxkfp8ckl-features-d)" opacity=".197"/>
      <path fill="#0D87FF" d="M16,15.6190476 C28.7897146,15.6190476 37.5648148,27.7213775 49,41 L-16,41 C-4.95433742,27.7213775 3.21028543,15.6190476 16,15.6190476 Z" mask="url(#4blxkfp8ckl-features-d)" opacity=".198"/>
      <circle cx="38" cy="10.738" r="5" fill="#58A8F7" mask="url(#4blxkfp8ckl-features-d)" opacity=".499"/>
    </g>
    <g transform="translate(26 21)">
      <circle cx="7.5" cy="7.5" r="7.5" fill="#0D87FF" opacity=".499"/>
      <polygon fill="#FFF" points="7.5 9.75 4.855 11.141 5.36 8.195 3.22 6.109 6.177 5.68 7.5 3 8.823 5.68 11.78 6.109 9.64 8.195 10.145 11.141"/>
    </g>
    <g transform="translate(140 21)">
      <circle cx="7.5" cy="7.5" r="7.5" fill="#0D87FF" opacity=".499"/>
      <polygon fill="#FFF" points="7.5 9.75 4.855 11.141 5.36 8.195 3.22 6.109 6.177 5.68 7.5 3 8.823 5.68 11.78 6.109 9.64 8.195 10.145 11.141"/>
    </g>
    <g transform="translate(83 21)">
      <circle cx="7.5" cy="7.5" r="7.5" fill="#0D87FF" opacity=".499"/>
      <polygon fill="#FFF" points="7.5 9.75 4.855 11.141 5.36 8.195 3.22 6.109 6.177 5.68 7.5 3 8.823 5.68 11.78 6.109 9.64 8.195 10.145 11.141"/>
    </g>
    <g fill="#58A8F7" transform="translate(10 42)">
      <polygon points="0 0 26 0 26 5 0 5" opacity=".499" transform="translate(10)"/>
      <polygon points="0 0 46 0 46 3 0 3" opacity=".197" transform="translate(0 17)"/>
      <polygon points="0 0 46 0 46 3 0 3" opacity=".197" transform="translate(0 10)"/>
      <polygon points="0 0 26 0 26 3 0 3" opacity=".197" transform="translate(10 24)"/>
    </g>
    <g fill="#58A8F7" transform="translate(124 42)">
      <polygon points="0 0 26 0 26 5 0 5" opacity=".499" transform="translate(10)"/>
      <polygon points="0 0 46 0 46 3 0 3" opacity=".197" transform="translate(0 17)"/>
      <polygon points="0 0 46 0 46 3 0 3" opacity=".197" transform="translate(0 10)"/>
      <polygon points="0 0 26 0 26 3 0 3" opacity=".197" transform="translate(10 24)"/>
    </g>
    <g fill="#58A8F7" transform="translate(67 42)">
      <polygon points="0 0 26 0 26 5 0 5" opacity=".499" transform="translate(10)"/>
      <polygon points="0 0 46 0 46 3 0 3" opacity=".197" transform="translate(0 17)"/>
      <polygon points="0 0 46 0 46 3 0 3" opacity=".197" transform="translate(0 10)"/>
      <polygon points="0 0 26 0 26 3 0 3" opacity=".197" transform="translate(10 24)"/>
    </g>
  </g>
</svg></g></g></g><rect x="-1" y="-1" rx="3" ry="3" width="182" height="230" fill="none" stroke="#A2CEF9" stroke-width="2"/><g transform="translate(0,206)"><g><text x="90" y="2" text-anchor="middle" font-family="Roboto,sans-serif" font-size="14px" fill="#52565f">Vocabulary Set 3</text></g></g></g><g transform="translate(810, 306)"><rect x="0" y="0" rx="2" ry="2" width="180" height="228" fill="#ffffff"/><g><g><g transform="translate( 0, 0 )"><svg xmlns="http://www.w3.org/2000/svg" xmlns:xlink="http://www.w3.org/1999/xlink" width="180" height="185" viewBox="0 0 180 185">
  <defs>
    <path id="oglkm929u6-news_list-a" d="M0,1.99508929 C0,0.893231902 0.897026226,0 2.00494659,0 L21.9950534,0 C23.1023548,0 24,0.892622799 24,1.99508929 L24,16.0049107 C24,17.1067681 23.1029738,18 21.9950534,18 L2.00494659,18 C0.897645164,18 0,17.1073772 0,16.0049107 L0,1.99508929 Z"/>
    <path id="oglkm929u6-news_list-c" d="M0,1.99508929 C0,0.893231902 0.897026226,0 2.00494659,0 L21.9950534,0 C23.1023548,0 24,0.892622799 24,1.99508929 L24,16.0049107 C24,17.1067681 23.1029738,18 21.9950534,18 L2.00494659,18 C0.897645164,18 0,17.1073772 0,16.0049107 L0,1.99508929 Z"/>
    <path id="oglkm929u6-news_list-e" d="M0,1.99508929 C0,0.893231902 0.897026226,0 2.00494659,0 L21.9950534,0 C23.1023548,0 24,0.892622799 24,1.99508929 L24,16.0049107 C24,17.1067681 23.1029738,18 21.9950534,18 L2.00494659,18 C0.897645164,18 0,17.1073772 0,16.0049107 L0,1.99508929 Z"/>
    <path id="oglkm929u6-news_list-g" d="M0,1.99508929 C0,0.893231902 0.897026226,0 2.00494659,0 L21.9950534,0 C23.1023548,0 24,0.892622799 24,1.99508929 L24,16.0049107 C24,17.1067681 23.1029738,18 21.9950534,18 L2.00494659,18 C0.897645164,18 0,17.1073772 0,16.0049107 L0,1.99508929 Z"/>
  </defs>
  <g fill="none" fill-rule="evenodd">
    <path fill="#58A8F7" d="M0,2.99971296 C0,1.34301724 1.34537458,0 2.99263929,0 L177.007361,0 C178.66015,0 180,1.34382565 180,2.99971296 L180,185 L0,185 L0,2.99971296 Z" opacity=".097"/>
    <path fill="#58A8F7" d="M0,3.00947762 C0,1.34738902 1.34537458,0 2.99263929,0 L177.007361,0 C178.66015,0 180,1.33663106 180,3.00947762 L180,16 L0,16 L0,3.00947762 Z" opacity=".197"/>
    <path fill="#0D87FF" d="M2.5,5 C1.11928813,5 0,3.88071187 0,2.5 C0,1.11928813 1.11928813,0 2.5,0 C3.88071187,0 5,1.11928813 5,2.5 C5,3.88071187 3.88071187,5 2.5,5 Z M10.5,5 C9.11928813,5 8,3.88071187 8,2.5 C8,1.11928813 9.11928813,0 10.5,0 C11.8807119,0 13,1.11928813 13,2.5 C13,3.88071187 11.8807119,5 10.5,5 Z M18.5,5 C17.1192881,5 16,3.88071187 16,2.5 C16,1.11928813 17.1192881,0 18.5,0 C19.8807119,0 21,1.11928813 21,2.5 C21,3.88071187 19.8807119,5 18.5,5 Z" opacity=".499" transform="translate(5 6)"/>
    <polygon fill="#58A8F7" points="0 0 14 0 14 3 0 3" opacity=".197" transform="translate(44 36)"/>
    <polygon fill="#58A8F7" points="0 0 70 0 70 5 0 5" opacity=".499" transform="translate(44 42)"/>
    <polygon fill="#58A8F7" points="0 0 20 0 20 5 0 5" opacity=".499" transform="translate(119 42)"/>
    <g fill="#58A8F7" opacity=".197" transform="translate(44 52)">
      <polygon points="0 0 116 0 116 3 0 3"/>
      <polygon points="0 0 70 0 70 3 0 3" transform="translate(0 7)"/>
    </g>
    <g transform="translate(10 36)">
      <path fill="#58A8F7" d="M0,1.99508929 C0,0.893231902 0.897026226,0 2.00494659,0 L21.9950534,0 C23.1023548,0 24,0.892622799 24,1.99508929 L24,16.0049107 C24,17.1067681 23.1029738,18 21.9950534,18 L2.00494659,18 C0.897645164,18 0,17.1073772 0,16.0049107 L0,1.99508929 Z" opacity=".197"/>
      <mask id="oglkm929u6-news_list-b" fill="#fff">
        <use xlink:href="#oglkm929u6-news_list-a"/>
      </mask>
      <path fill="#58A8F7" d="M20.5714286,9.81818182 C25.2050919,9.81818182 28.0565771,13.3115424 32.5714286,18 C28.8882603,18 13.1203921,18 8.57142857,18 C12.4922207,14.1389173 15.9377652,9.81818182 20.5714286,9.81818182 Z" mask="url(#oglkm929u6-news_list-b)" opacity=".197"/>
      <path fill="#0D87FF" d="M3.42857143,8.18181818 C8.31958315,8.18181818 11.9126984,12.8633949 16.2857143,18 C10.5479809,18 -3.34693878,18 -8.57142857,18 C-4.34737299,12.8633949 -1.4624403,8.18181818 3.42857143,8.18181818 Z" mask="url(#oglkm929u6-news_list-b)" opacity=".198"/>
      <circle cx="12.857" cy="5.727" r="3" fill="#58A8F7" mask="url(#oglkm929u6-news_list-b)" opacity=".499"/>
    </g>
    <polygon fill="#58A8F7" points="0 0 14 0 14 3 0 3" opacity=".197" transform="translate(44 72)"/>
    <polygon fill="#58A8F7" points="0 0 40 0 40 5 0 5" opacity=".499" transform="translate(44 78)"/>
    <polygon fill="#58A8F7" points="0 0 50 0 50 5 0 5" opacity=".499" transform="translate(89 78)"/>
    <g fill="#58A8F7" opacity=".197" transform="translate(44 88)">
      <polygon points="0 0 116 0 116 3 0 3"/>
      <polygon points="0 0 70 0 70 3 0 3" transform="translate(0 7)"/>
    </g>
    <g transform="translate(10 72)">
      <path fill="#58A8F7" d="M0,1.99508929 C0,0.893231902 0.897026226,0 2.00494659,0 L21.9950534,0 C23.1023548,0 24,0.892622799 24,1.99508929 L24,16.0049107 C24,17.1067681 23.1029738,18 21.9950534,18 L2.00494659,18 C0.897645164,18 0,17.1073772 0,16.0049107 L0,1.99508929 Z" opacity=".197"/>
      <mask id="oglkm929u6-news_list-d" fill="#fff">
        <use xlink:href="#oglkm929u6-news_list-c"/>
      </mask>
      <path fill="#58A8F7" d="M20.5714286,9.81818182 C25.2050919,9.81818182 28.0565771,13.3115424 32.5714286,18 C28.8882603,18 13.1203921,18 8.57142857,18 C12.4922207,14.1389173 15.9377652,9.81818182 20.5714286,9.81818182 Z" mask="url(#oglkm929u6-news_list-d)" opacity=".197"/>
      <path fill="#0D87FF" d="M3.42857143,8.18181818 C8.31958315,8.18181818 11.9126984,12.8633949 16.2857143,18 C10.5479809,18 -3.34693878,18 -8.57142857,18 C-4.34737299,12.8633949 -1.4624403,8.18181818 3.42857143,8.18181818 Z" mask="url(#oglkm929u6-news_list-d)" opacity=".198"/>
      <circle cx="12.857" cy="5.727" r="3" fill="#58A8F7" mask="url(#oglkm929u6-news_list-d)" opacity=".499"/>
    </g>
    <polygon fill="#58A8F7" points="0 0 14 0 14 3 0 3" opacity=".197" transform="translate(44 108)"/>
    <polygon fill="#58A8F7" points="0 0 20 0 20 5 0 5" opacity=".499" transform="translate(44 114)"/>
    <polygon fill="#58A8F7" points="0 0 50 0 50 5 0 5" opacity=".499" transform="translate(69 114)"/>
    <polygon fill="#58A8F7" points="0 0 21 0 21 5 0 5" opacity=".499" transform="translate(124 114)"/>
    <g fill="#58A8F7" opacity=".197" transform="translate(44 124)">
      <polygon points="0 0 116 0 116 3 0 3"/>
      <polygon points="0 0 70 0 70 3 0 3" transform="translate(0 7)"/>
    </g>
    <g transform="translate(10 108)">
      <path fill="#58A8F7" d="M0,1.99508929 C0,0.893231902 0.897026226,0 2.00494659,0 L21.9950534,0 C23.1023548,0 24,0.892622799 24,1.99508929 L24,16.0049107 C24,17.1067681 23.1029738,18 21.9950534,18 L2.00494659,18 C0.897645164,18 0,17.1073772 0,16.0049107 L0,1.99508929 Z" opacity=".197"/>
      <mask id="oglkm929u6-news_list-f" fill="#fff">
        <use xlink:href="#oglkm929u6-news_list-e"/>
      </mask>
      <path fill="#58A8F7" d="M20.5714286,9.81818182 C25.2050919,9.81818182 28.0565771,13.3115424 32.5714286,18 C28.8882603,18 13.1203921,18 8.57142857,18 C12.4922207,14.1389173 15.9377652,9.81818182 20.5714286,9.81818182 Z" mask="url(#oglkm929u6-news_list-f)" opacity=".197"/>
      <path fill="#0D87FF" d="M3.42857143,8.18181818 C8.31958315,8.18181818 11.9126984,12.8633949 16.2857143,18 C10.5479809,18 -3.34693878,18 -8.57142857,18 C-4.34737299,12.8633949 -1.4624403,8.18181818 3.42857143,8.18181818 Z" mask="url(#oglkm929u6-news_list-f)" opacity=".198"/>
      <circle cx="12.857" cy="5.727" r="3" fill="#58A8F7" mask="url(#oglkm929u6-news_list-f)" opacity=".499"/>
    </g>
    <polygon fill="#58A8F7" points="0 0 14 0 14 3 0 3" opacity=".197" transform="translate(44 144)"/>
    <polygon fill="#58A8F7" points="0 0 50 0 50 5 0 5" opacity=".499" transform="translate(44 150)"/>
    <polygon fill="#58A8F7" points="0 0 30 0 30 5 0 5" opacity=".499" transform="translate(99 150)"/>
    <g fill="#58A8F7" opacity=".197" transform="translate(44 160)">
      <polygon points="0 0 116 0 116 3 0 3"/>
      <polygon points="0 0 70 0 70 3 0 3" transform="translate(0 7)"/>
    </g>
    <g transform="translate(10 144)">
      <path fill="#58A8F7" d="M0,1.99508929 C0,0.893231902 0.897026226,0 2.00494659,0 L21.9950534,0 C23.1023548,0 24,0.892622799 24,1.99508929 L24,16.0049107 C24,17.1067681 23.1029738,18 21.9950534,18 L2.00494659,18 C0.897645164,18 0,17.1073772 0,16.0049107 L0,1.99508929 Z" opacity=".197"/>
      <mask id="oglkm929u6-news_list-h" fill="#fff">
        <use xlink:href="#oglkm929u6-news_list-g"/>
      </mask>
      <path fill="#58A8F7" d="M20.5714286,9.81818182 C25.2050919,9.81818182 28.0565771,13.3115424 32.5714286,18 C28.8882603,18 13.1203921,18 8.57142857,18 C12.4922207,14.1389173 15.9377652,9.81818182 20.5714286,9.81818182 Z" mask="url(#oglkm929u6-news_list-h)" opacity=".197"/>
      <path fill="#0D87FF" d="M3.42857143,8.18181818 C8.31958315,8.18181818 11.9126984,12.8633949 16.2857143,18 C10.5479809,18 -3.34693878,18 -8.57142857,18 C-4.34737299,12.8633949 -1.4624403,8.18181818 3.42857143,8.18181818 Z" mask="url(#oglkm929u6-news_list-h)" opacity=".198"/>
      <circle cx="12.857" cy="5.727" r="3" fill="#58A8F7" mask="url(#oglkm929u6-news_list-h)" opacity=".499"/>
    </g>
  </g>
</svg></g></g></g><rect x="-1" y="-1" rx="3" ry="3" width="182" height="230" fill="none" stroke="#A2CEF9" stroke-width="2"/><g transform="translate(0,206)"><g><text x="90" y="2" text-anchor="middle" font-family="Roboto,sans-serif" font-size="14px" fill="#52565f">Vocabulary Sets</text></g></g></g><g transform="translate(1210, 306)"><rect x="0" y="0" rx="2" ry="2" width="180" height="228" fill="#ffffff"/><g><g><g transform="translate( 0, 0 )"><svg xmlns="http://www.w3.org/2000/svg" xmlns:xlink="http://www.w3.org/1999/xlink" width="180" height="185" viewBox="0 0 180 185">
  <defs>
    <path id="gwv6n34kp6-news_list-a" d="M0,1.99508929 C0,0.893231902 0.897026226,0 2.00494659,0 L21.9950534,0 C23.1023548,0 24,0.892622799 24,1.99508929 L24,16.0049107 C24,17.1067681 23.1029738,18 21.9950534,18 L2.00494659,18 C0.897645164,18 0,17.1073772 0,16.0049107 L0,1.99508929 Z"/>
    <path id="gwv6n34kp6-news_list-c" d="M0,1.99508929 C0,0.893231902 0.897026226,0 2.00494659,0 L21.9950534,0 C23.1023548,0 24,0.892622799 24,1.99508929 L24,16.0049107 C24,17.1067681 23.1029738,18 21.9950534,18 L2.00494659,18 C0.897645164,18 0,17.1073772 0,16.0049107 L0,1.99508929 Z"/>
    <path id="gwv6n34kp6-news_list-e" d="M0,1.99508929 C0,0.893231902 0.897026226,0 2.00494659,0 L21.9950534,0 C23.1023548,0 24,0.892622799 24,1.99508929 L24,16.0049107 C24,17.1067681 23.1029738,18 21.9950534,18 L2.00494659,18 C0.897645164,18 0,17.1073772 0,16.0049107 L0,1.99508929 Z"/>
    <path id="gwv6n34kp6-news_list-g" d="M0,1.99508929 C0,0.893231902 0.897026226,0 2.00494659,0 L21.9950534,0 C23.1023548,0 24,0.892622799 24,1.99508929 L24,16.0049107 C24,17.1067681 23.1029738,18 21.9950534,18 L2.00494659,18 C0.897645164,18 0,17.1073772 0,16.0049107 L0,1.99508929 Z"/>
  </defs>
  <g fill="none" fill-rule="evenodd">
    <path fill="#58A8F7" d="M0,2.99971296 C0,1.34301724 1.34537458,0 2.99263929,0 L177.007361,0 C178.66015,0 180,1.34382565 180,2.99971296 L180,185 L0,185 L0,2.99971296 Z" opacity=".097"/>
    <path fill="#58A8F7" d="M0,3.00947762 C0,1.34738902 1.34537458,0 2.99263929,0 L177.007361,0 C178.66015,0 180,1.33663106 180,3.00947762 L180,16 L0,16 L0,3.00947762 Z" opacity=".197"/>
    <path fill="#0D87FF" d="M2.5,5 C1.11928813,5 0,3.88071187 0,2.5 C0,1.11928813 1.11928813,0 2.5,0 C3.88071187,0 5,1.11928813 5,2.5 C5,3.88071187 3.88071187,5 2.5,5 Z M10.5,5 C9.11928813,5 8,3.88071187 8,2.5 C8,1.11928813 9.11928813,0 10.5,0 C11.8807119,0 13,1.11928813 13,2.5 C13,3.88071187 11.8807119,5 10.5,5 Z M18.5,5 C17.1192881,5 16,3.88071187 16,2.5 C16,1.11928813 17.1192881,0 18.5,0 C19.8807119,0 21,1.11928813 21,2.5 C21,3.88071187 19.8807119,5 18.5,5 Z" opacity=".499" transform="translate(5 6)"/>
    <polygon fill="#58A8F7" points="0 0 14 0 14 3 0 3" opacity=".197" transform="translate(44 36)"/>
    <polygon fill="#58A8F7" points="0 0 70 0 70 5 0 5" opacity=".499" transform="translate(44 42)"/>
    <polygon fill="#58A8F7" points="0 0 20 0 20 5 0 5" opacity=".499" transform="translate(119 42)"/>
    <g fill="#58A8F7" opacity=".197" transform="translate(44 52)">
      <polygon points="0 0 116 0 116 3 0 3"/>
      <polygon points="0 0 70 0 70 3 0 3" transform="translate(0 7)"/>
    </g>
    <g transform="translate(10 36)">
      <path fill="#58A8F7" d="M0,1.99508929 C0,0.893231902 0.897026226,0 2.00494659,0 L21.9950534,0 C23.1023548,0 24,0.892622799 24,1.99508929 L24,16.0049107 C24,17.1067681 23.1029738,18 21.9950534,18 L2.00494659,18 C0.897645164,18 0,17.1073772 0,16.0049107 L0,1.99508929 Z" opacity=".197"/>
      <mask id="gwv6n34kp6-news_list-b" fill="#fff">
        <use xlink:href="#gwv6n34kp6-news_list-a"/>
      </mask>
      <path fill="#58A8F7" d="M20.5714286,9.81818182 C25.2050919,9.81818182 28.0565771,13.3115424 32.5714286,18 C28.8882603,18 13.1203921,18 8.57142857,18 C12.4922207,14.1389173 15.9377652,9.81818182 20.5714286,9.81818182 Z" mask="url(#gwv6n34kp6-news_list-b)" opacity=".197"/>
      <path fill="#0D87FF" d="M3.42857143,8.18181818 C8.31958315,8.18181818 11.9126984,12.8633949 16.2857143,18 C10.5479809,18 -3.34693878,18 -8.57142857,18 C-4.34737299,12.8633949 -1.4624403,8.18181818 3.42857143,8.18181818 Z" mask="url(#gwv6n34kp6-news_list-b)" opacity=".198"/>
      <circle cx="12.857" cy="5.727" r="3" fill="#58A8F7" mask="url(#gwv6n34kp6-news_list-b)" opacity=".499"/>
    </g>
    <polygon fill="#58A8F7" points="0 0 14 0 14 3 0 3" opacity=".197" transform="translate(44 72)"/>
    <polygon fill="#58A8F7" points="0 0 40 0 40 5 0 5" opacity=".499" transform="translate(44 78)"/>
    <polygon fill="#58A8F7" points="0 0 50 0 50 5 0 5" opacity=".499" transform="translate(89 78)"/>
    <g fill="#58A8F7" opacity=".197" transform="translate(44 88)">
      <polygon points="0 0 116 0 116 3 0 3"/>
      <polygon points="0 0 70 0 70 3 0 3" transform="translate(0 7)"/>
    </g>
    <g transform="translate(10 72)">
      <path fill="#58A8F7" d="M0,1.99508929 C0,0.893231902 0.897026226,0 2.00494659,0 L21.9950534,0 C23.1023548,0 24,0.892622799 24,1.99508929 L24,16.0049107 C24,17.1067681 23.1029738,18 21.9950534,18 L2.00494659,18 C0.897645164,18 0,17.1073772 0,16.0049107 L0,1.99508929 Z" opacity=".197"/>
      <mask id="gwv6n34kp6-news_list-d" fill="#fff">
        <use xlink:href="#gwv6n34kp6-news_list-c"/>
      </mask>
      <path fill="#58A8F7" d="M20.5714286,9.81818182 C25.2050919,9.81818182 28.0565771,13.3115424 32.5714286,18 C28.8882603,18 13.1203921,18 8.57142857,18 C12.4922207,14.1389173 15.9377652,9.81818182 20.5714286,9.81818182 Z" mask="url(#gwv6n34kp6-news_list-d)" opacity=".197"/>
      <path fill="#0D87FF" d="M3.42857143,8.18181818 C8.31958315,8.18181818 11.9126984,12.8633949 16.2857143,18 C10.5479809,18 -3.34693878,18 -8.57142857,18 C-4.34737299,12.8633949 -1.4624403,8.18181818 3.42857143,8.18181818 Z" mask="url(#gwv6n34kp6-news_list-d)" opacity=".198"/>
      <circle cx="12.857" cy="5.727" r="3" fill="#58A8F7" mask="url(#gwv6n34kp6-news_list-d)" opacity=".499"/>
    </g>
    <polygon fill="#58A8F7" points="0 0 14 0 14 3 0 3" opacity=".197" transform="translate(44 108)"/>
    <polygon fill="#58A8F7" points="0 0 20 0 20 5 0 5" opacity=".499" transform="translate(44 114)"/>
    <polygon fill="#58A8F7" points="0 0 50 0 50 5 0 5" opacity=".499" transform="translate(69 114)"/>
    <polygon fill="#58A8F7" points="0 0 21 0 21 5 0 5" opacity=".499" transform="translate(124 114)"/>
    <g fill="#58A8F7" opacity=".197" transform="translate(44 124)">
      <polygon points="0 0 116 0 116 3 0 3"/>
      <polygon points="0 0 70 0 70 3 0 3" transform="translate(0 7)"/>
    </g>
    <g transform="translate(10 108)">
      <path fill="#58A8F7" d="M0,1.99508929 C0,0.893231902 0.897026226,0 2.00494659,0 L21.9950534,0 C23.1023548,0 24,0.892622799 24,1.99508929 L24,16.0049107 C24,17.1067681 23.1029738,18 21.9950534,18 L2.00494659,18 C0.897645164,18 0,17.1073772 0,16.0049107 L0,1.99508929 Z" opacity=".197"/>
      <mask id="gwv6n34kp6-news_list-f" fill="#fff">
        <use xlink:href="#gwv6n34kp6-news_list-e"/>
      </mask>
      <path fill="#58A8F7" d="M20.5714286,9.81818182 C25.2050919,9.81818182 28.0565771,13.3115424 32.5714286,18 C28.8882603,18 13.1203921,18 8.57142857,18 C12.4922207,14.1389173 15.9377652,9.81818182 20.5714286,9.81818182 Z" mask="url(#gwv6n34kp6-news_list-f)" opacity=".197"/>
      <path fill="#0D87FF" d="M3.42857143,8.18181818 C8.31958315,8.18181818 11.9126984,12.8633949 16.2857143,18 C10.5479809,18 -3.34693878,18 -8.57142857,18 C-4.34737299,12.8633949 -1.4624403,8.18181818 3.42857143,8.18181818 Z" mask="url(#gwv6n34kp6-news_list-f)" opacity=".198"/>
      <circle cx="12.857" cy="5.727" r="3" fill="#58A8F7" mask="url(#gwv6n34kp6-news_list-f)" opacity=".499"/>
    </g>
    <polygon fill="#58A8F7" points="0 0 14 0 14 3 0 3" opacity=".197" transform="translate(44 144)"/>
    <polygon fill="#58A8F7" points="0 0 50 0 50 5 0 5" opacity=".499" transform="translate(44 150)"/>
    <polygon fill="#58A8F7" points="0 0 30 0 30 5 0 5" opacity=".499" transform="translate(99 150)"/>
    <g fill="#58A8F7" opacity=".197" transform="translate(44 160)">
      <polygon points="0 0 116 0 116 3 0 3"/>
      <polygon points="0 0 70 0 70 3 0 3" transform="translate(0 7)"/>
    </g>
    <g transform="translate(10 144)">
      <path fill="#58A8F7" d="M0,1.99508929 C0,0.893231902 0.897026226,0 2.00494659,0 L21.9950534,0 C23.1023548,0 24,0.892622799 24,1.99508929 L24,16.0049107 C24,17.1067681 23.1029738,18 21.9950534,18 L2.00494659,18 C0.897645164,18 0,17.1073772 0,16.0049107 L0,1.99508929 Z" opacity=".197"/>
      <mask id="gwv6n34kp6-news_list-h" fill="#fff">
        <use xlink:href="#gwv6n34kp6-news_list-g"/>
      </mask>
      <path fill="#58A8F7" d="M20.5714286,9.81818182 C25.2050919,9.81818182 28.0565771,13.3115424 32.5714286,18 C28.8882603,18 13.1203921,18 8.57142857,18 C12.4922207,14.1389173 15.9377652,9.81818182 20.5714286,9.81818182 Z" mask="url(#gwv6n34kp6-news_list-h)" opacity=".197"/>
      <path fill="#0D87FF" d="M3.42857143,8.18181818 C8.31958315,8.18181818 11.9126984,12.8633949 16.2857143,18 C10.5479809,18 -3.34693878,18 -8.57142857,18 C-4.34737299,12.8633949 -1.4624403,8.18181818 3.42857143,8.18181818 Z" mask="url(#gwv6n34kp6-news_list-h)" opacity=".198"/>
      <circle cx="12.857" cy="5.727" r="3" fill="#58A8F7" mask="url(#gwv6n34kp6-news_list-h)" opacity=".499"/>
    </g>
  </g>
</svg></g></g></g><rect x="-1" y="-1" rx="3" ry="3" width="182" height="230" fill="none" stroke="#A2CEF9" stroke-width="2"/><g transform="translate(0,206)"><g><text x="90" y="2" text-anchor="middle" font-family="Roboto,sans-serif" font-size="14px" fill="#52565f">Achievement</text></g></g></g><g transform="translate(1410, 586)"><rect x="0" y="0" rx="2" ry="2" width="180" height="228" fill="#ffffff"/><g><g><g transform="translate( 0, 0 )"><svg xmlns="http://www.w3.org/2000/svg" xmlns:xlink="http://www.w3.org/1999/xlink" width="180" height="185" viewBox="0 0 180 185">
  <defs>
    <rect id="fouu2o5rutl-features-a" width="70" height="43" rx="2"/>
    <rect id="fouu2o5rutl-features-c" width="70" height="41" rx="2"/>
  </defs>
  <g fill="none" fill-rule="evenodd">
    <path fill="#58A8F7" d="M0,2.99971296 C0,1.34301724 1.34537458,0 2.99263929,0 L177.007361,0 C178.66015,0 180,1.34382565 180,2.99971296 L180,185 L0,185 L0,2.99971296 Z" opacity=".097"/>
    <path fill="#58A8F7" d="M0,3.00947762 C0,1.34738902 1.34537458,0 2.99263929,0 L177.007361,0 C178.66015,0 180,1.33663106 180,3.00947762 L180,16 L0,16 L0,3.00947762 Z" opacity=".197"/>
    <path fill="#0D87FF" d="M2.5,5 C1.11928813,5 0,3.88071187 0,2.5 C0,1.11928813 1.11928813,0 2.5,0 C3.88071187,0 5,1.11928813 5,2.5 C5,3.88071187 3.88071187,5 2.5,5 Z M10.5,5 C9.11928813,5 8,3.88071187 8,2.5 C8,1.11928813 9.11928813,0 10.5,0 C11.8807119,0 13,1.11928813 13,2.5 C13,3.88071187 11.8807119,5 10.5,5 Z M18.5,5 C17.1192881,5 16,3.88071187 16,2.5 C16,1.11928813 17.1192881,0 18.5,0 C19.8807119,0 21,1.11928813 21,2.5 C21,3.88071187 19.8807119,5 18.5,5 Z" opacity=".499" transform="translate(5 6)"/>
    <polygon fill="#58A8F7" points="0 0 50 0 50 5 0 5" opacity=".499" transform="translate(100 83)"/>
    <polygon fill="#58A8F7" points="0 0 50 0 50 5 0 5" opacity=".499" transform="translate(10 134)"/>
    <g fill="#58A8F7" opacity=".197" transform="translate(100 93)">
      <polygon points="0 0 70 0 70 3 0 3" transform="translate(0 14)"/>
      <polygon points="0 0 70 0 70 3 0 3" transform="translate(0 7)"/>
      <polygon points="0 0 70 0 70 3 0 3"/>
      <polygon points="0 0 42 0 42 3 0 3" transform="translate(0 21)"/>
    </g>
    <g fill="#58A8F7" opacity=".197" transform="translate(10 144)">
      <polygon points="0 0 70 0 70 3 0 3" transform="translate(0 14)"/>
      <polygon points="0 0 70 0 70 3 0 3" transform="translate(0 7)"/>
      <polygon points="0 0 70 0 70 3 0 3"/>
      <polygon points="0 0 42 0 42 3 0 3" transform="translate(0 21)"/>
    </g>
    <g transform="translate(10 81)">
      <rect width="70" height="43" fill="#58A8F7" opacity=".197" rx="2"/>
      <mask id="fouu2o5rutl-features-b" fill="#fff">
        <use xlink:href="#fouu2o5rutl-features-a"/>
      </mask>
      <path fill="#58A8F7" d="M56,20.4761905 C67.970297,20.4761905 74.3366337,30.0930979 86,43 L24,43 C34.1287129,32.3707865 44.029703,20.4761905 56,20.4761905 Z" mask="url(#fouu2o5rutl-features-b)" opacity=".197"/>
      <path fill="#0D87FF" d="M16,16.3809524 C28.7897146,16.3809524 37.5648148,29.0736399 49,43 L-16,43 C-4.95433742,29.0736399 3.21028543,16.3809524 16,16.3809524 Z" mask="url(#fouu2o5rutl-features-b)" opacity=".198"/>
      <circle cx="38" cy="11.262" r="5" fill="#58A8F7" mask="url(#fouu2o5rutl-features-b)" opacity=".499"/>
    </g>
    <g transform="translate(100 134)">
      <rect width="70" height="41" fill="#58A8F7" opacity=".197" rx="2"/>
      <mask id="fouu2o5rutl-features-d" fill="#fff">
        <use xlink:href="#fouu2o5rutl-features-c"/>
      </mask>
      <path fill="#58A8F7" d="M56,19.5238095 C67.970297,19.5238095 74.3366337,28.6934189 86,41 L24,41 C34.1287129,30.8651685 44.029703,19.5238095 56,19.5238095 Z" mask="url(#fouu2o5rutl-features-d)" opacity=".197"/>
      <path fill="#0D87FF" d="M16,15.6190476 C28.7897146,15.6190476 37.5648148,27.7213775 49,41 L-16,41 C-4.95433742,27.7213775 3.21028543,15.6190476 16,15.6190476 Z" mask="url(#fouu2o5rutl-features-d)" opacity=".198"/>
      <circle cx="38" cy="10.738" r="5" fill="#58A8F7" mask="url(#fouu2o5rutl-features-d)" opacity=".499"/>
    </g>
    <g transform="translate(26 21)">
      <circle cx="7.5" cy="7.5" r="7.5" fill="#0D87FF" opacity=".499"/>
      <polygon fill="#FFF" points="7.5 9.75 4.855 11.141 5.36 8.195 3.22 6.109 6.177 5.68 7.5 3 8.823 5.68 11.78 6.109 9.64 8.195 10.145 11.141"/>
    </g>
    <g transform="translate(140 21)">
      <circle cx="7.5" cy="7.5" r="7.5" fill="#0D87FF" opacity=".499"/>
      <polygon fill="#FFF" points="7.5 9.75 4.855 11.141 5.36 8.195 3.22 6.109 6.177 5.68 7.5 3 8.823 5.68 11.78 6.109 9.64 8.195 10.145 11.141"/>
    </g>
    <g transform="translate(83 21)">
      <circle cx="7.5" cy="7.5" r="7.5" fill="#0D87FF" opacity=".499"/>
      <polygon fill="#FFF" points="7.5 9.75 4.855 11.141 5.36 8.195 3.22 6.109 6.177 5.68 7.5 3 8.823 5.68 11.78 6.109 9.64 8.195 10.145 11.141"/>
    </g>
    <g fill="#58A8F7" transform="translate(10 42)">
      <polygon points="0 0 26 0 26 5 0 5" opacity=".499" transform="translate(10)"/>
      <polygon points="0 0 46 0 46 3 0 3" opacity=".197" transform="translate(0 17)"/>
      <polygon points="0 0 46 0 46 3 0 3" opacity=".197" transform="translate(0 10)"/>
      <polygon points="0 0 26 0 26 3 0 3" opacity=".197" transform="translate(10 24)"/>
    </g>
    <g fill="#58A8F7" transform="translate(124 42)">
      <polygon points="0 0 26 0 26 5 0 5" opacity=".499" transform="translate(10)"/>
      <polygon points="0 0 46 0 46 3 0 3" opacity=".197" transform="translate(0 17)"/>
      <polygon points="0 0 46 0 46 3 0 3" opacity=".197" transform="translate(0 10)"/>
      <polygon points="0 0 26 0 26 3 0 3" opacity=".197" transform="translate(10 24)"/>
    </g>
    <g fill="#58A8F7" transform="translate(67 42)">
      <polygon points="0 0 26 0 26 5 0 5" opacity=".499" transform="translate(10)"/>
      <polygon points="0 0 46 0 46 3 0 3" opacity=".197" transform="translate(0 17)"/>
      <polygon points="0 0 46 0 46 3 0 3" opacity=".197" transform="translate(0 10)"/>
      <polygon points="0 0 26 0 26 3 0 3" opacity=".197" transform="translate(10 24)"/>
    </g>
  </g>
</svg></g></g></g><rect x="-1" y="-1" rx="3" ry="3" width="182" height="230" fill="none" stroke="#A2CEF9" stroke-width="2"/><g transform="translate(0,206)"><g><text x="90" y="2" text-anchor="middle" font-family="Roboto,sans-serif" font-size="14px" fill="#52565f">Vocabulary Set 4</text></g></g></g><g transform="translate(1610, 586)"><rect x="0" y="0" rx="2" ry="2" width="180" height="228" fill="#ffffff"/><g><g><g transform="translate( 0, 0 )"><svg xmlns="http://www.w3.org/2000/svg" xmlns:xlink="http://www.w3.org/1999/xlink" width="180" height="185" viewBox="0 0 180 185">
  <defs>
    <rect id="vfh4g2qtsp-features-a" width="70" height="43" rx="2"/>
    <rect id="vfh4g2qtsp-features-c" width="70" height="41" rx="2"/>
  </defs>
  <g fill="none" fill-rule="evenodd">
    <path fill="#58A8F7" d="M0,2.99971296 C0,1.34301724 1.34537458,0 2.99263929,0 L177.007361,0 C178.66015,0 180,1.34382565 180,2.99971296 L180,185 L0,185 L0,2.99971296 Z" opacity=".097"/>
    <path fill="#58A8F7" d="M0,3.00947762 C0,1.34738902 1.34537458,0 2.99263929,0 L177.007361,0 C178.66015,0 180,1.33663106 180,3.00947762 L180,16 L0,16 L0,3.00947762 Z" opacity=".197"/>
    <path fill="#0D87FF" d="M2.5,5 C1.11928813,5 0,3.88071187 0,2.5 C0,1.11928813 1.11928813,0 2.5,0 C3.88071187,0 5,1.11928813 5,2.5 C5,3.88071187 3.88071187,5 2.5,5 Z M10.5,5 C9.11928813,5 8,3.88071187 8,2.5 C8,1.11928813 9.11928813,0 10.5,0 C11.8807119,0 13,1.11928813 13,2.5 C13,3.88071187 11.8807119,5 10.5,5 Z M18.5,5 C17.1192881,5 16,3.88071187 16,2.5 C16,1.11928813 17.1192881,0 18.5,0 C19.8807119,0 21,1.11928813 21,2.5 C21,3.88071187 19.8807119,5 18.5,5 Z" opacity=".499" transform="translate(5 6)"/>
    <polygon fill="#58A8F7" points="0 0 50 0 50 5 0 5" opacity=".499" transform="translate(100 83)"/>
    <polygon fill="#58A8F7" points="0 0 50 0 50 5 0 5" opacity=".499" transform="translate(10 134)"/>
    <g fill="#58A8F7" opacity=".197" transform="translate(100 93)">
      <polygon points="0 0 70 0 70 3 0 3" transform="translate(0 14)"/>
      <polygon points="0 0 70 0 70 3 0 3" transform="translate(0 7)"/>
      <polygon points="0 0 70 0 70 3 0 3"/>
      <polygon points="0 0 42 0 42 3 0 3" transform="translate(0 21)"/>
    </g>
    <g fill="#58A8F7" opacity=".197" transform="translate(10 144)">
      <polygon points="0 0 70 0 70 3 0 3" transform="translate(0 14)"/>
      <polygon points="0 0 70 0 70 3 0 3" transform="translate(0 7)"/>
      <polygon points="0 0 70 0 70 3 0 3"/>
      <polygon points="0 0 42 0 42 3 0 3" transform="translate(0 21)"/>
    </g>
    <g transform="translate(10 81)">
      <rect width="70" height="43" fill="#58A8F7" opacity=".197" rx="2"/>
      <mask id="vfh4g2qtsp-features-b" fill="#fff">
        <use xlink:href="#vfh4g2qtsp-features-a"/>
      </mask>
      <path fill="#58A8F7" d="M56,20.4761905 C67.970297,20.4761905 74.3366337,30.0930979 86,43 L24,43 C34.1287129,32.3707865 44.029703,20.4761905 56,20.4761905 Z" mask="url(#vfh4g2qtsp-features-b)" opacity=".197"/>
      <path fill="#0D87FF" d="M16,16.3809524 C28.7897146,16.3809524 37.5648148,29.0736399 49,43 L-16,43 C-4.95433742,29.0736399 3.21028543,16.3809524 16,16.3809524 Z" mask="url(#vfh4g2qtsp-features-b)" opacity=".198"/>
      <circle cx="38" cy="11.262" r="5" fill="#58A8F7" mask="url(#vfh4g2qtsp-features-b)" opacity=".499"/>
    </g>
    <g transform="translate(100 134)">
      <rect width="70" height="41" fill="#58A8F7" opacity=".197" rx="2"/>
      <mask id="vfh4g2qtsp-features-d" fill="#fff">
        <use xlink:href="#vfh4g2qtsp-features-c"/>
      </mask>
      <path fill="#58A8F7" d="M56,19.5238095 C67.970297,19.5238095 74.3366337,28.6934189 86,41 L24,41 C34.1287129,30.8651685 44.029703,19.5238095 56,19.5238095 Z" mask="url(#vfh4g2qtsp-features-d)" opacity=".197"/>
      <path fill="#0D87FF" d="M16,15.6190476 C28.7897146,15.6190476 37.5648148,27.7213775 49,41 L-16,41 C-4.95433742,27.7213775 3.21028543,15.6190476 16,15.6190476 Z" mask="url(#vfh4g2qtsp-features-d)" opacity=".198"/>
      <circle cx="38" cy="10.738" r="5" fill="#58A8F7" mask="url(#vfh4g2qtsp-features-d)" opacity=".499"/>
    </g>
    <g transform="translate(26 21)">
      <circle cx="7.5" cy="7.5" r="7.5" fill="#0D87FF" opacity=".499"/>
      <polygon fill="#FFF" points="7.5 9.75 4.855 11.141 5.36 8.195 3.22 6.109 6.177 5.68 7.5 3 8.823 5.68 11.78 6.109 9.64 8.195 10.145 11.141"/>
    </g>
    <g transform="translate(140 21)">
      <circle cx="7.5" cy="7.5" r="7.5" fill="#0D87FF" opacity=".499"/>
      <polygon fill="#FFF" points="7.5 9.75 4.855 11.141 5.36 8.195 3.22 6.109 6.177 5.68 7.5 3 8.823 5.68 11.78 6.109 9.64 8.195 10.145 11.141"/>
    </g>
    <g transform="translate(83 21)">
      <circle cx="7.5" cy="7.5" r="7.5" fill="#0D87FF" opacity=".499"/>
      <polygon fill="#FFF" points="7.5 9.75 4.855 11.141 5.36 8.195 3.22 6.109 6.177 5.68 7.5 3 8.823 5.68 11.78 6.109 9.64 8.195 10.145 11.141"/>
    </g>
    <g fill="#58A8F7" transform="translate(10 42)">
      <polygon points="0 0 26 0 26 5 0 5" opacity=".499" transform="translate(10)"/>
      <polygon points="0 0 46 0 46 3 0 3" opacity=".197" transform="translate(0 17)"/>
      <polygon points="0 0 46 0 46 3 0 3" opacity=".197" transform="translate(0 10)"/>
      <polygon points="0 0 26 0 26 3 0 3" opacity=".197" transform="translate(10 24)"/>
    </g>
    <g fill="#58A8F7" transform="translate(124 42)">
      <polygon points="0 0 26 0 26 5 0 5" opacity=".499" transform="translate(10)"/>
      <polygon points="0 0 46 0 46 3 0 3" opacity=".197" transform="translate(0 17)"/>
      <polygon points="0 0 46 0 46 3 0 3" opacity=".197" transform="translate(0 10)"/>
      <polygon points="0 0 26 0 26 3 0 3" opacity=".197" transform="translate(10 24)"/>
    </g>
    <g fill="#58A8F7" transform="translate(67 42)">
      <polygon points="0 0 26 0 26 5 0 5" opacity=".499" transform="translate(10)"/>
      <polygon points="0 0 46 0 46 3 0 3" opacity=".197" transform="translate(0 17)"/>
      <polygon points="0 0 46 0 46 3 0 3" opacity=".197" transform="translate(0 10)"/>
      <polygon points="0 0 26 0 26 3 0 3" opacity=".197" transform="translate(10 24)"/>
    </g>
  </g>
</svg></g></g></g><rect x="-1" y="-1" rx="3" ry="3" width="182" height="230" fill="none" stroke="#A2CEF9" stroke-width="2"/><g transform="translate(0,206)"><g><text x="90" y="2" text-anchor="middle" font-family="Roboto,sans-serif" font-size="14px" fill="#52565f">Vocabulary Set 5</text></g></g></g><g transform="translate(1810, 586)"><rect x="0" y="0" rx="2" ry="2" width="180" height="228" fill="#ffffff"/><g><g><g transform="translate( 0, 0 )"><svg xmlns="http://www.w3.org/2000/svg" xmlns:xlink="http://www.w3.org/1999/xlink" width="180" height="185" viewBox="0 0 180 185">
  <defs>
    <rect id="rkzk63br83b-features-a" width="70" height="43" rx="2"/>
    <rect id="rkzk63br83b-features-c" width="70" height="41" rx="2"/>
  </defs>
  <g fill="none" fill-rule="evenodd">
    <path fill="#58A8F7" d="M0,2.99971296 C0,1.34301724 1.34537458,0 2.99263929,0 L177.007361,0 C178.66015,0 180,1.34382565 180,2.99971296 L180,185 L0,185 L0,2.99971296 Z" opacity=".097"/>
    <path fill="#58A8F7" d="M0,3.00947762 C0,1.34738902 1.34537458,0 2.99263929,0 L177.007361,0 C178.66015,0 180,1.33663106 180,3.00947762 L180,16 L0,16 L0,3.00947762 Z" opacity=".197"/>
    <path fill="#0D87FF" d="M2.5,5 C1.11928813,5 0,3.88071187 0,2.5 C0,1.11928813 1.11928813,0 2.5,0 C3.88071187,0 5,1.11928813 5,2.5 C5,3.88071187 3.88071187,5 2.5,5 Z M10.5,5 C9.11928813,5 8,3.88071187 8,2.5 C8,1.11928813 9.11928813,0 10.5,0 C11.8807119,0 13,1.11928813 13,2.5 C13,3.88071187 11.8807119,5 10.5,5 Z M18.5,5 C17.1192881,5 16,3.88071187 16,2.5 C16,1.11928813 17.1192881,0 18.5,0 C19.8807119,0 21,1.11928813 21,2.5 C21,3.88071187 19.8807119,5 18.5,5 Z" opacity=".499" transform="translate(5 6)"/>
    <polygon fill="#58A8F7" points="0 0 50 0 50 5 0 5" opacity=".499" transform="translate(100 83)"/>
    <polygon fill="#58A8F7" points="0 0 50 0 50 5 0 5" opacity=".499" transform="translate(10 134)"/>
    <g fill="#58A8F7" opacity=".197" transform="translate(100 93)">
      <polygon points="0 0 70 0 70 3 0 3" transform="translate(0 14)"/>
      <polygon points="0 0 70 0 70 3 0 3" transform="translate(0 7)"/>
      <polygon points="0 0 70 0 70 3 0 3"/>
      <polygon points="0 0 42 0 42 3 0 3" transform="translate(0 21)"/>
    </g>
    <g fill="#58A8F7" opacity=".197" transform="translate(10 144)">
      <polygon points="0 0 70 0 70 3 0 3" transform="translate(0 14)"/>
      <polygon points="0 0 70 0 70 3 0 3" transform="translate(0 7)"/>
      <polygon points="0 0 70 0 70 3 0 3"/>
      <polygon points="0 0 42 0 42 3 0 3" transform="translate(0 21)"/>
    </g>
    <g transform="translate(10 81)">
      <rect width="70" height="43" fill="#58A8F7" opacity=".197" rx="2"/>
      <mask id="rkzk63br83b-features-b" fill="#fff">
        <use xlink:href="#rkzk63br83b-features-a"/>
      </mask>
      <path fill="#58A8F7" d="M56,20.4761905 C67.970297,20.4761905 74.3366337,30.0930979 86,43 L24,43 C34.1287129,32.3707865 44.029703,20.4761905 56,20.4761905 Z" mask="url(#rkzk63br83b-features-b)" opacity=".197"/>
      <path fill="#0D87FF" d="M16,16.3809524 C28.7897146,16.3809524 37.5648148,29.0736399 49,43 L-16,43 C-4.95433742,29.0736399 3.21028543,16.3809524 16,16.3809524 Z" mask="url(#rkzk63br83b-features-b)" opacity=".198"/>
      <circle cx="38" cy="11.262" r="5" fill="#58A8F7" mask="url(#rkzk63br83b-features-b)" opacity=".499"/>
    </g>
    <g transform="translate(100 134)">
      <rect width="70" height="41" fill="#58A8F7" opacity=".197" rx="2"/>
      <mask id="rkzk63br83b-features-d" fill="#fff">
        <use xlink:href="#rkzk63br83b-features-c"/>
      </mask>
      <path fill="#58A8F7" d="M56,19.5238095 C67.970297,19.5238095 74.3366337,28.6934189 86,41 L24,41 C34.1287129,30.8651685 44.029703,19.5238095 56,19.5238095 Z" mask="url(#rkzk63br83b-features-d)" opacity=".197"/>
      <path fill="#0D87FF" d="M16,15.6190476 C28.7897146,15.6190476 37.5648148,27.7213775 49,41 L-16,41 C-4.95433742,27.7213775 3.21028543,15.6190476 16,15.6190476 Z" mask="url(#rkzk63br83b-features-d)" opacity=".198"/>
      <circle cx="38" cy="10.738" r="5" fill="#58A8F7" mask="url(#rkzk63br83b-features-d)" opacity=".499"/>
    </g>
    <g transform="translate(26 21)">
      <circle cx="7.5" cy="7.5" r="7.5" fill="#0D87FF" opacity=".499"/>
      <polygon fill="#FFF" points="7.5 9.75 4.855 11.141 5.36 8.195 3.22 6.109 6.177 5.68 7.5 3 8.823 5.68 11.78 6.109 9.64 8.195 10.145 11.141"/>
    </g>
    <g transform="translate(140 21)">
      <circle cx="7.5" cy="7.5" r="7.5" fill="#0D87FF" opacity=".499"/>
      <polygon fill="#FFF" points="7.5 9.75 4.855 11.141 5.36 8.195 3.22 6.109 6.177 5.68 7.5 3 8.823 5.68 11.78 6.109 9.64 8.195 10.145 11.141"/>
    </g>
    <g transform="translate(83 21)">
      <circle cx="7.5" cy="7.5" r="7.5" fill="#0D87FF" opacity=".499"/>
      <polygon fill="#FFF" points="7.5 9.75 4.855 11.141 5.36 8.195 3.22 6.109 6.177 5.68 7.5 3 8.823 5.68 11.78 6.109 9.64 8.195 10.145 11.141"/>
    </g>
    <g fill="#58A8F7" transform="translate(10 42)">
      <polygon points="0 0 26 0 26 5 0 5" opacity=".499" transform="translate(10)"/>
      <polygon points="0 0 46 0 46 3 0 3" opacity=".197" transform="translate(0 17)"/>
      <polygon points="0 0 46 0 46 3 0 3" opacity=".197" transform="translate(0 10)"/>
      <polygon points="0 0 26 0 26 3 0 3" opacity=".197" transform="translate(10 24)"/>
    </g>
    <g fill="#58A8F7" transform="translate(124 42)">
      <polygon points="0 0 26 0 26 5 0 5" opacity=".499" transform="translate(10)"/>
      <polygon points="0 0 46 0 46 3 0 3" opacity=".197" transform="translate(0 17)"/>
      <polygon points="0 0 46 0 46 3 0 3" opacity=".197" transform="translate(0 10)"/>
      <polygon points="0 0 26 0 26 3 0 3" opacity=".197" transform="translate(10 24)"/>
    </g>
    <g fill="#58A8F7" transform="translate(67 42)">
      <polygon points="0 0 26 0 26 5 0 5" opacity=".499" transform="translate(10)"/>
      <polygon points="0 0 46 0 46 3 0 3" opacity=".197" transform="translate(0 17)"/>
      <polygon points="0 0 46 0 46 3 0 3" opacity=".197" transform="translate(0 10)"/>
      <polygon points="0 0 26 0 26 3 0 3" opacity=".197" transform="translate(10 24)"/>
    </g>
  </g>
</svg></g></g></g><rect x="-1" y="-1" rx="3" ry="3" width="182" height="230" fill="none" stroke="#A2CEF9" stroke-width="2"/><g transform="translate(0,206)"><g><text x="90" y="2" text-anchor="middle" font-family="Roboto,sans-serif" font-size="14px" fill="#52565f">Vocabulary Set 6</text></g></g></g><g transform="translate(1610, 306)"><rect x="0" y="0" rx="2" ry="2" width="180" height="228" fill="#ffffff"/><g><g><g transform="translate( 0, 0 )"><svg xmlns="http://www.w3.org/2000/svg" xmlns:xlink="http://www.w3.org/1999/xlink" width="180" height="185" viewBox="0 0 180 185">
  <defs>
    <path id="oilvh3anjil-search_results-a" d="M0,1.99508929 C0,0.893231902 0.897026226,0 2.00494659,0 L21.9950534,0 C23.1023548,0 24,0.892622799 24,1.99508929 L24,16.0049107 C24,17.1067681 23.1029738,18 21.9950534,18 L2.00494659,18 C0.897645164,18 0,17.1073772 0,16.0049107 L0,1.99508929 Z"/>
    <path id="oilvh3anjil-search_results-c" d="M0,1.99508929 C0,0.893231902 0.897026226,0 2.00494659,0 L21.9950534,0 C23.1023548,0 24,0.892622799 24,1.99508929 L24,16.0049107 C24,17.1067681 23.1029738,18 21.9950534,18 L2.00494659,18 C0.897645164,18 0,17.1073772 0,16.0049107 L0,1.99508929 Z"/>
    <path id="oilvh3anjil-search_results-e" d="M0,1.99508929 C0,0.893231902 0.897026226,0 2.00494659,0 L21.9950534,0 C23.1023548,0 24,0.892622799 24,1.99508929 L24,16.0049107 C24,17.1067681 23.1029738,18 21.9950534,18 L2.00494659,18 C0.897645164,18 0,17.1073772 0,16.0049107 L0,1.99508929 Z"/>
  </defs>
  <g fill="none" fill-rule="evenodd">
    <path fill="#58A8F7" d="M0,2.99971296 C0,1.34301724 1.34537458,0 2.99263929,0 L177.007361,0 C178.66015,0 180,1.34382565 180,2.99971296 L180,185 L0,185 L0,2.99971296 Z" opacity=".097"/>
    <path fill="#58A8F7" d="M0,3.00947762 C0,1.34738902 1.34537458,0 2.99263929,0 L177.007361,0 C178.66015,0 180,1.33663106 180,3.00947762 L180,16 L0,16 L0,3.00947762 Z" opacity=".197"/>
    <path fill="#0D87FF" d="M2.5,5 C1.11928813,5 0,3.88071187 0,2.5 C0,1.11928813 1.11928813,0 2.5,0 C3.88071187,0 5,1.11928813 5,2.5 C5,3.88071187 3.88071187,5 2.5,5 Z M10.5,5 C9.11928813,5 8,3.88071187 8,2.5 C8,1.11928813 9.11928813,0 10.5,0 C11.8807119,0 13,1.11928813 13,2.5 C13,3.88071187 11.8807119,5 10.5,5 Z M18.5,5 C17.1192881,5 16,3.88071187 16,2.5 C16,1.11928813 17.1192881,0 18.5,0 C19.8807119,0 21,1.11928813 21,2.5 C21,3.88071187 19.8807119,5 18.5,5 Z" opacity=".499" transform="translate(5 6)"/>
    <g transform="translate(20 36)">
      <g transform="translate(0 6)">
        <rect width="140" height="11" fill="#58A8F7" opacity=".499" rx="2"/>
        <rect width="138" height="9" x="1" y="1" fill="#FFF" rx="1"/>
        <polygon fill="#58A8F7" points="0 0 82 0 82 3 0 3" opacity=".197" transform="translate(4 4)"/>
        <polygon fill="#0D87FF" points="2.5 3 0 0 5 0" transform="translate(130 4)"/>
      </g>
      <polygon fill="#58A8F7" points="0 0 49 0 49 3 0 3" opacity=".197"/>
    </g>
    <g transform="translate(20 73)">
      <path fill="#58A8F7" d="M0,1.99508929 C0,0.893231902 0.897026226,0 2.00494659,0 L21.9950534,0 C23.1023548,0 24,0.892622799 24,1.99508929 L24,16.0049107 C24,17.1067681 23.1029738,18 21.9950534,18 L2.00494659,18 C0.897645164,18 0,17.1073772 0,16.0049107 L0,1.99508929 Z" opacity=".197"/>
      <mask id="oilvh3anjil-search_results-b" fill="#fff">
        <use xlink:href="#oilvh3anjil-search_results-a"/>
      </mask>
      <path fill="#58A8F7" d="M20.5714286,9.81818182 C25.2050919,9.81818182 28.0565771,13.3115424 32.5714286,18 C28.8882603,18 13.1203921,18 8.57142857,18 C12.4922207,14.1389173 15.9377652,9.81818182 20.5714286,9.81818182 Z" mask="url(#oilvh3anjil-search_results-b)" opacity=".197"/>
      <path fill="#0D87FF" d="M3.42857143,8.18181818 C8.31958315,8.18181818 11.9126984,12.8633949 16.2857143,18 C10.5479809,18 -3.34693878,18 -8.57142857,18 C-4.34737299,12.8633949 -1.4624403,8.18181818 3.42857143,8.18181818 Z" mask="url(#oilvh3anjil-search_results-b)" opacity=".198"/>
      <circle cx="12.857" cy="5.727" r="3" fill="#58A8F7" mask="url(#oilvh3anjil-search_results-b)" opacity=".499"/>
    </g>
    <g transform="translate(20 106)">
      <path fill="#58A8F7" d="M0,1.99508929 C0,0.893231902 0.897026226,0 2.00494659,0 L21.9950534,0 C23.1023548,0 24,0.892622799 24,1.99508929 L24,16.0049107 C24,17.1067681 23.1029738,18 21.9950534,18 L2.00494659,18 C0.897645164,18 0,17.1073772 0,16.0049107 L0,1.99508929 Z" opacity=".197"/>
      <mask id="oilvh3anjil-search_results-d" fill="#fff">
        <use xlink:href="#oilvh3anjil-search_results-c"/>
      </mask>
      <path fill="#58A8F7" d="M20.5714286,9.81818182 C25.2050919,9.81818182 28.0565771,13.3115424 32.5714286,18 C28.8882603,18 13.1203921,18 8.57142857,18 C12.4922207,14.1389173 15.9377652,9.81818182 20.5714286,9.81818182 Z" mask="url(#oilvh3anjil-search_results-d)" opacity=".197"/>
      <path fill="#0D87FF" d="M3.42857143,8.18181818 C8.31958315,8.18181818 11.9126984,12.8633949 16.2857143,18 C10.5479809,18 -3.34693878,18 -8.57142857,18 C-4.34737299,12.8633949 -1.4624403,8.18181818 3.42857143,8.18181818 Z" mask="url(#oilvh3anjil-search_results-d)" opacity=".198"/>
      <circle cx="12.857" cy="5.727" r="3" fill="#58A8F7" mask="url(#oilvh3anjil-search_results-d)" opacity=".499"/>
    </g>
    <polygon fill="#58A8F7" points="0 0 50 0 50 8 0 8" opacity=".499" transform="translate(54 73)"/>
    <polygon fill="#58A8F7" points="0 0 50 0 50 8 0 8" opacity=".499" transform="translate(54 106)"/>
    <g fill="#58A8F7" opacity=".197" transform="translate(54 86)">
      <polygon points="0 0 70 0 70 3 0 3"/>
      <polygon points="0 0 42 0 42 3 0 3" transform="translate(0 7)"/>
    </g>
    <g fill="#58A8F7" opacity=".197" transform="translate(54 119)">
      <polygon points="0 0 70 0 70 3 0 3"/>
      <polygon points="0 0 42 0 42 3 0 3" transform="translate(0 7)"/>
    </g>
    <g fill="#58A8F7" opacity=".197" transform="translate(54 152)">
      <polygon points="0 0 70 0 70 3 0 3"/>
      <polygon points="0 0 42 0 42 3 0 3" transform="translate(0 7)"/>
    </g>
    <g transform="translate(20 139)">
      <path fill="#58A8F7" d="M0,1.99508929 C0,0.893231902 0.897026226,0 2.00494659,0 L21.9950534,0 C23.1023548,0 24,0.892622799 24,1.99508929 L24,16.0049107 C24,17.1067681 23.1029738,18 21.9950534,18 L2.00494659,18 C0.897645164,18 0,17.1073772 0,16.0049107 L0,1.99508929 Z" opacity=".197"/>
      <mask id="oilvh3anjil-search_results-f" fill="#fff">
        <use xlink:href="#oilvh3anjil-search_results-e"/>
      </mask>
      <path fill="#58A8F7" d="M20.5714286,9.81818182 C25.2050919,9.81818182 28.0565771,13.3115424 32.5714286,18 C28.8882603,18 13.1203921,18 8.57142857,18 C12.4922207,14.1389173 15.9377652,9.81818182 20.5714286,9.81818182 Z" mask="url(#oilvh3anjil-search_results-f)" opacity=".197"/>
      <path fill="#0D87FF" d="M3.42857143,8.18181818 C8.31958315,8.18181818 11.9126984,12.8633949 16.2857143,18 C10.5479809,18 -3.34693878,18 -8.57142857,18 C-4.34737299,12.8633949 -1.4624403,8.18181818 3.42857143,8.18181818 Z" mask="url(#oilvh3anjil-search_results-f)" opacity=".198"/>
      <circle cx="12.857" cy="5.727" r="3" fill="#58A8F7" mask="url(#oilvh3anjil-search_results-f)" opacity=".499"/>
    </g>
    <polygon fill="#58A8F7" points="0 0 50 0 50 8 0 8" opacity=".499" transform="translate(54 139)"/>
  </g>
</svg></g></g></g><rect x="-1" y="-1" rx="3" ry="3" width="182" height="230" fill="none" stroke="#A2CEF9" stroke-width="2"/><g transform="translate(0,206)"><g><text x="90" y="2" text-anchor="middle" font-family="Roboto,sans-serif" font-size="14px" fill="#52565f">Search</text></g></g></g><g transform="translate(2010, 306)"><rect x="0" y="0" rx="2" ry="2" width="180" height="228" fill="#ffffff"/><g><g><g transform="translate( 0, 0 )"><svg xmlns="http://www.w3.org/2000/svg" width="180" height="185" viewBox="0 0 180 185">
  <g fill="none" fill-rule="evenodd">
    <path fill="#58A8F7" d="M0,2.99971296 C0,1.34301724 1.34537458,0 2.99263929,0 L177.007361,0 C178.66015,0 180,1.34382565 180,2.99971296 L180,185 L0,185 L0,2.99971296 Z" opacity=".097"/>
    <path fill="#58A8F7" d="M0,3.00947762 C0,1.34738902 1.34537458,0 2.99263929,0 L177.007361,0 C178.66015,0 180,1.33663106 180,3.00947762 L180,16 L0,16 L0,3.00947762 Z" opacity=".197"/>
    <path fill="#0D87FF" d="M2.5,5 C1.11928813,5 0,3.88071187 0,2.5 C0,1.11928813 1.11928813,0 2.5,0 C3.88071187,0 5,1.11928813 5,2.5 C5,3.88071187 3.88071187,5 2.5,5 Z M10.5,5 C9.11928813,5 8,3.88071187 8,2.5 C8,1.11928813 9.11928813,0 10.5,0 C11.8807119,0 13,1.11928813 13,2.5 C13,3.88071187 11.8807119,5 10.5,5 Z M18.5,5 C17.1192881,5 16,3.88071187 16,2.5 C16,1.11928813 17.1192881,0 18.5,0 C19.8807119,0 21,1.11928813 21,2.5 C21,3.88071187 19.8807119,5 18.5,5 Z" opacity=".499" transform="translate(5 6)"/>
    <g transform="translate(26 26)">
      <circle cx="7.5" cy="7.5" r="7.5" fill="#0D87FF" opacity=".499"/>
      <polygon fill="#FFF" points="7.5 9.75 4.855 11.141 5.36 8.195 3.22 6.109 6.177 5.68 7.5 3 8.823 5.68 11.78 6.109 9.64 8.195 10.145 11.141"/>
    </g>
    <g transform="translate(26 83)">
      <circle cx="7.5" cy="7.5" r="7.5" fill="#0D87FF" opacity=".499"/>
      <polygon fill="#FFF" points="7.5 9.75 4.855 11.141 5.36 8.195 3.22 6.109 6.177 5.68 7.5 3 8.823 5.68 11.78 6.109 9.64 8.195 10.145 11.141"/>
    </g>
    <g transform="translate(140 26)">
      <circle cx="7.5" cy="7.5" r="7.5" fill="#0D87FF" opacity=".499"/>
      <polygon fill="#FFF" points="7.5 9.75 4.855 11.141 5.36 8.195 3.22 6.109 6.177 5.68 7.5 3 8.823 5.68 11.78 6.109 9.64 8.195 10.145 11.141"/>
    </g>
    <g transform="translate(140 83)">
      <circle cx="7.5" cy="7.5" r="7.5" fill="#0D87FF" opacity=".499"/>
      <polygon fill="#FFF" points="7.5 9.75 4.855 11.141 5.36 8.195 3.22 6.109 6.177 5.68 7.5 3 8.823 5.68 11.78 6.109 9.64 8.195 10.145 11.141"/>
    </g>
    <g transform="translate(83 26)">
      <circle cx="7.5" cy="7.5" r="7.5" fill="#0D87FF" opacity=".499"/>
      <polygon fill="#FFF" points="7.5 9.75 4.855 11.141 5.36 8.195 3.22 6.109 6.177 5.68 7.5 3 8.823 5.68 11.78 6.109 9.64 8.195 10.145 11.141"/>
    </g>
    <g transform="translate(83 83)">
      <circle cx="7.5" cy="7.5" r="7.5" fill="#0D87FF" opacity=".499"/>
      <polygon fill="#FFF" points="7.5 9.75 4.855 11.141 5.36 8.195 3.22 6.109 6.177 5.68 7.5 3 8.823 5.68 11.78 6.109 9.64 8.195 10.145 11.141"/>
    </g>
    <g fill="#58A8F7" transform="translate(10 47)">
      <polygon points="0 0 26 0 26 5 0 5" opacity=".499" transform="translate(10)"/>
      <polygon points="0 0 46 0 46 3 0 3" opacity=".197" transform="translate(0 17)"/>
      <polygon points="0 0 46 0 46 3 0 3" opacity=".197" transform="translate(0 10)"/>
      <polygon points="0 0 26 0 26 3 0 3" opacity=".197" transform="translate(10 24)"/>
    </g>
    <g fill="#58A8F7" transform="translate(10 104)">
      <polygon points="0 0 26 0 26 5 0 5" opacity=".499" transform="translate(10)"/>
      <polygon points="0 0 46 0 46 3 0 3" opacity=".197" transform="translate(0 17)"/>
      <polygon points="0 0 46 0 46 3 0 3" opacity=".197" transform="translate(0 10)"/>
      <polygon points="0 0 26 0 26 3 0 3" opacity=".197" transform="translate(10 24)"/>
    </g>
    <g fill="#58A8F7" transform="translate(124 47)">
      <polygon points="0 0 26 0 26 5 0 5" opacity=".499" transform="translate(10)"/>
      <polygon points="0 0 46 0 46 3 0 3" opacity=".197" transform="translate(0 17)"/>
      <polygon points="0 0 46 0 46 3 0 3" opacity=".197" transform="translate(0 10)"/>
      <polygon points="0 0 26 0 26 3 0 3" opacity=".197" transform="translate(10 24)"/>
    </g>
    <g fill="#58A8F7" transform="translate(124 104)">
      <polygon points="0 0 26 0 26 5 0 5" opacity=".499" transform="translate(10)"/>
      <polygon points="0 0 46 0 46 3 0 3" opacity=".197" transform="translate(0 17)"/>
      <polygon points="0 0 46 0 46 3 0 3" opacity=".197" transform="translate(0 10)"/>
      <polygon points="0 0 26 0 26 3 0 3" opacity=".197" transform="translate(10 24)"/>
    </g>
    <g fill="#58A8F7" transform="translate(67 47)">
      <polygon points="0 0 26 0 26 5 0 5" opacity=".499" transform="translate(10)"/>
      <polygon points="0 0 46 0 46 3 0 3" opacity=".197" transform="translate(0 17)"/>
      <polygon points="0 0 46 0 46 3 0 3" opacity=".197" transform="translate(0 10)"/>
      <polygon points="0 0 26 0 26 3 0 3" opacity=".197" transform="translate(10 24)"/>
    </g>
    <g fill="#58A8F7" transform="translate(67 104)">
      <polygon points="0 0 26 0 26 5 0 5" opacity=".499" transform="translate(10)"/>
      <polygon points="0 0 46 0 46 3 0 3" opacity=".197" transform="translate(0 17)"/>
      <polygon points="0 0 46 0 46 3 0 3" opacity=".197" transform="translate(0 10)"/>
      <polygon points="0 0 26 0 26 3 0 3" opacity=".197" transform="translate(10 24)"/>
    </g>
    <g fill="#58A8F7" opacity=".197" transform="translate(10 158)">
      <polygon points="0 0 160 0 160 3 0 3" transform="translate(0 7)"/>
      <polygon points="0 0 160 0 160 3 0 3"/>
      <polygon points="0 0 96 0 96 3 0 3" transform="translate(0 14)"/>
    </g>
    <polygon fill="#58A8F7" points="0 0 50 0 50 5 0 5" opacity=".499" transform="translate(10 148)"/>
  </g>
</svg></g></g></g><rect x="-1" y="-1" rx="3" ry="3" width="182" height="230" fill="none" stroke="#A2CEF9" stroke-width="2"/><g transform="translate(0,206)"><g><text x="90" y="2" text-anchor="middle" font-family="Roboto,sans-serif" font-size="14px" fill="#52565f">Settings</text></g></g></g><g transform="translate(1210, 26)"><rect x="0" y="0" rx="2" ry="2" width="180" height="228" fill="#ffffff"/><g><g><g transform="translate( 0, 0 )"><svg xmlns="http://www.w3.org/2000/svg" width="180" height="185" viewBox="0 0 180 185">
  <g fill="none" fill-rule="evenodd">
    <path fill="#58A8F7" d="M0,2.99971296 C0,1.34301724 1.34537458,0 2.99263929,0 L177.007361,0 C178.66015,0 180,1.34382565 180,2.99971296 L180,185 L0,185 L0,2.99971296 Z" opacity=".097"/>
    <path fill="#58A8F7" d="M0,3.00947762 C0,1.34738902 1.34537458,0 2.99263929,0 L177.007361,0 C178.66015,0 180,1.33663106 180,3.00947762 L180,16 L0,16 L0,3.00947762 Z" opacity=".197"/>
    <path fill="#0D87FF" d="M2.5,5 C1.11928813,5 0,3.88071187 0,2.5 C0,1.11928813 1.11928813,0 2.5,0 C3.88071187,0 5,1.11928813 5,2.5 C5,3.88071187 3.88071187,5 2.5,5 Z M10.5,5 C9.11928813,5 8,3.88071187 8,2.5 C8,1.11928813 9.11928813,0 10.5,0 C11.8807119,0 13,1.11928813 13,2.5 C13,3.88071187 11.8807119,5 10.5,5 Z M18.5,5 C17.1192881,5 16,3.88071187 16,2.5 C16,1.11928813 17.1192881,0 18.5,0 C19.8807119,0 21,1.11928813 21,2.5 C21,3.88071187 19.8807119,5 18.5,5 Z" opacity=".499" transform="translate(5 6)"/>
    <path fill="#58A8F7" d="M3.8458278,-1.55376046e-16 L107.154172,1.55376046e-16 C108.49145,-9.02779573e-17 108.97638,0.139238417 109.465269,0.400699056 C109.954157,0.662159695 110.33784,1.04584256 110.599301,1.53473144 C110.860762,2.02362033 111,2.50854969 111,3.8458278 L111,81.1541722 C111,82.4914503 110.860762,82.9763797 110.599301,83.4652686 C110.33784,83.9541574 109.954157,84.3378403 109.465269,84.5993009 C108.97638,84.8607616 108.49145,85 107.154172,85 L3.8458278,85 C2.50854969,85 2.02362033,84.8607616 1.53473144,84.5993009 C1.04584256,84.3378403 0.662159695,83.9541574 0.400699056,83.4652686 C0.139238417,82.9763797 6.01853049e-17,82.4914503 -1.03584031e-16,81.1541722 L1.03584031e-16,3.8458278 C-6.01853049e-17,2.50854969 0.139238417,2.02362033 0.400699056,1.53473144 C0.662159695,1.04584256 1.04584256,0.662159695 1.53473144,0.400699056 C2.02362033,0.139238417 2.50854969,9.02779573e-17 3.8458278,-1.55376046e-16 Z" opacity=".197" transform="translate(35 54)"/>
    <g transform="translate(45 64)">
      <g transform="translate(0 6)">
        <rect width="91" height="11" fill="#58A8F7" opacity=".499" rx="2"/>
        <rect width="89" height="9" x="1" y="1" fill="#FFF" rx="1"/>
        <polygon fill="#58A8F7" points="0 0 53 0 53 3 0 3" opacity=".197" transform="translate(4 4)"/>
        <polygon fill="#0D87FF" points="2.5 3 0 0 5 0" transform="translate(81 4)"/>
      </g>
      <polygon fill="#58A8F7" points="0 0 32 0 32 3 0 3" opacity=".197"/>
    </g>
    <g transform="translate(45 91)">
      <g transform="translate(0 6)">
        <rect width="91" height="11" fill="#58A8F7" opacity=".499" rx="2"/>
        <rect width="89" height="9" x="1" y="1" fill="#FFF" rx="1"/>
      </g>
      <polygon fill="#58A8F7" points="0 0 20 0 20 3 0 3" opacity=".197"/>
    </g>
    <path fill="#0D87FF" d="M0,1.99201702 C0,0.891856397 0.900658965,0 2.00671997,0 L88.99328,0 C90.1015609,0 91,0.900176167 91,1.99201702 L91,9.00798298 C91,10.1081436 90.099341,11 88.99328,11 L2.00671997,11 C0.898439133,11 0,10.0998238 0,9.00798298 L0,1.99201702 Z" opacity=".499" transform="translate(45 118)"/>
    <polygon fill="#58A8F7" points="0 0 50 0 50 8 0 8" opacity=".499" transform="translate(65 36)"/>
  </g>
</svg></g></g></g><rect x="-1" y="-1" rx="3" ry="3" width="182" height="230" fill="none" stroke="#A2CEF9" stroke-width="2"/><g transform="translate(0,206)"><g><text x="90" y="2" text-anchor="middle" font-family="Roboto,sans-serif" font-size="14px" fill="#52565f">Login</text></g></g></g></g><g><g><g><path d="M 270,840L 70,840Q60,840 60,850L 60,866" stroke="#4d9ef6" stroke-width="2" fill="none"/><path d="M 260,814L 260,840L 260,866" stroke="#4d9ef6" stroke-width="2" fill="none"/><path d="M 250,840L 450,840Q460,840 460,850L 460,866" stroke="#4d9ef6" stroke-width="2" fill="none"/><path d="M 450,840L 650,840Q660,840 660,850L 660,866" stroke="#4d9ef6" stroke-width="2" fill="none"/></g><g><g transform="translate( 250,804 )"><circle cx="10" cy="10" r="9" stroke-width="2" stroke="#A2CEF9" fill="#ffffff"/><path d="M10 7L13 12L7 12Z" fill="#58A8F7"/></g><g transform="translate( 54,860 )"><circle cx="6" cy="6" r="5" stroke-width="2" stroke="#A2CEF9" fill="#ffffff"/><path d="M6 8L4 5L8 5Z" fill="#58A8F7"/></g><g transform="translate( 254,860 )"><circle cx="6" cy="6" r="5" stroke-width="2" stroke="#A2CEF9" fill="#ffffff"/><path d="M6 8L4 5L8 5Z" fill="#58A8F7"/></g><g transform="translate( 454,860 )"><circle cx="6" cy="6" r="5" stroke-width="2" stroke="#A2CEF9" fill="#ffffff"/><path d="M6 8L4 5L8 5Z" fill="#58A8F7"/></g><g transform="translate( 654,860 )"><circle cx="6" cy="6" r="5" stroke-width="2" stroke="#A2CEF9" fill="#ffffff"/><path d="M6 8L4 5L8 5Z" fill="#58A8F7"/></g></g></g><g><g><path d="M 870,560L 270,560Q260,560 260,570L 260,586" stroke="#4d9ef6" stroke-width="2" fill="none"/><path d="M 860,534L 860,560L 860,586" stroke="#4d9ef6" stroke-width="2" fill="none"/><path d="M 850,560L 1050,560Q1060,560 1060,570L 1060,586" stroke="#4d9ef6" stroke-width="2" fill="none"/></g><g><g transform="translate( 850,524 )"><circle cx="10" cy="10" r="9" stroke-width="2" stroke="#A2CEF9" fill="#ffffff"/><path d="M10 7L13 12L7 12Z" fill="#58A8F7"/></g><g transform="translate( 254,580 )"><circle cx="6" cy="6" r="5" stroke-width="2" stroke="#A2CEF9" fill="#ffffff"/><path d="M6 8L4 5L8 5Z" fill="#58A8F7"/></g><g transform="translate( 854,580 )"><circle cx="6" cy="6" r="5" stroke-width="2" stroke="#A2CEF9" fill="#ffffff"/><path d="M6 8L4 5L8 5Z" fill="#58A8F7"/></g><g transform="translate( 1054,580 )"><circle cx="6" cy="6" r="5" stroke-width="2" stroke="#A2CEF9" fill="#ffffff"/><path d="M6 8L4 5L8 5Z" fill="#58A8F7"/></g></g></g><g><g><path d="M 1670,560L 1470,560Q1460,560 1460,570L 1460,586" stroke="#4d9ef6" stroke-width="2" fill="none"/><path d="M 1660,534L 1660,560L 1660,586" stroke="#4d9ef6" stroke-width="2" fill="none"/><path d="M 1650,560L 1850,560Q1860,560 1860,570L 1860,586" stroke="#4d9ef6" stroke-width="2" fill="none"/></g><g><g transform="translate( 1650,524 )"><circle cx="10" cy="10" r="9" stroke-width="2" stroke="#A2CEF9" fill="#ffffff"/><path d="M10 7L13 12L7 12Z" fill="#58A8F7"/></g><g transform="translate( 1454,580 )"><circle cx="6" cy="6" r="5" stroke-width="2" stroke="#A2CEF9" fill="#ffffff"/><path d="M6 8L4 5L8 5Z" fill="#58A8F7"/></g><g transform="translate( 1654,580 )"><circle cx="6" cy="6" r="5" stroke-width="2" stroke="#A2CEF9" fill="#ffffff"/><path d="M6 8L4 5L8 5Z" fill="#58A8F7"/></g><g transform="translate( 1854,580 )"><circle cx="6" cy="6" r="5" stroke-width="2" stroke="#A2CEF9" fill="#ffffff"/><path d="M6 8L4 5L8 5Z" fill="#58A8F7"/></g></g></g><g><g><path d="M 1270,280L 870,280Q860,280 860,290L 860,306" stroke="#4d9ef6" stroke-width="2" fill="none"/><path d="M 1260,254L 1260,280L 1260,306" stroke="#4d9ef6" stroke-width="2" fill="none"/><path d="M 1250,280L 1650,280Q1660,280 1660,290L 1660,306" stroke="#4d9ef6" stroke-width="2" fill="none"/><path d="M 1650,280L 2050,280Q2060,280 2060,290L 2060,306" stroke="#4d9ef6" stroke-width="2" fill="none"/></g><g><g transform="translate( 1250,244 )"><circle cx="10" cy="10" r="9" stroke-width="2" stroke="#A2CEF9" fill="#ffffff"/><path d="M10 7L13 12L7 12Z" fill="#58A8F7"/></g><g transform="translate( 854,300 )"><circle cx="6" cy="6" r="5" stroke-width="2" stroke="#A2CEF9" fill="#ffffff"/><path d="M6 8L4 5L8 5Z" fill="#58A8F7"/></g><g transform="translate( 1254,300 )"><circle cx="6" cy="6" r="5" stroke-width="2" stroke="#A2CEF9" fill="#ffffff"/><path d="M6 8L4 5L8 5Z" fill="#58A8F7"/></g><g transform="translate( 1654,300 )"><circle cx="6" cy="6" r="5" stroke-width="2" stroke="#A2CEF9" fill="#ffffff"/><path d="M6 8L4 5L8 5Z" fill="#58A8F7"/></g><g transform="translate( 2054,300 )"><circle cx="6" cy="6" r="5" stroke-width="2" stroke="#A2CEF9" fill="#ffffff"/><path d="M6 8L4 5L8 5Z" fill="#58A8F7"/></g></g></g></g></g></g></svg>